<?xml version="1.0" encoding="UTF-8"?>
<!DOCTYPE svg PUBLIC "-//W3C//DTD SVG 1.1//EN" "http://www.w3.org/Graphics/SVG/1.1/DTD/svg11.dtd">
<svg version="1.1" class="detalhes_jaqueta_college" xmlns="http://www.w3.org/2000/svg" xmlns:xlink="http://www.w3.org/1999/xlink"
	width="460px" height="431px" viewBox="0 0 460000 431381" fill-rule="evenodd" clip-rule="evenodd" xml:space="preserve"
	shape-rendering="geometricPrecision" text-rendering="geometricPrecision" image-rendering="optimizeQuality">
	<g class="manga">
		<path d="M87980 248024c262,-1240 675,-3052 971,-4658 297,-1605 476,-3004 624,-4172 148,-1168 265,-2105 372,-2832 107,-727 203,-1244 286,-1567 83,-324 152,-455 910,-1116 757,-662 2205,-1854 3562,-3132 1357,-1278 2625,-2643 4089,-4476 	1464,-1832 3125,-4134 4403,-6115 1279,-1981 2174,-3641 2932,-5006 758,-1364 1378,-2432 2016,-3782 637,-1351 1292,-2984 1784,-4179 493,-1196 824,-1954 1055,-2688 230,-734 361,-1443 458,-2094 96,-651 158,-1244 268,-2078 111,-834 269,-1908 383,-3669 114,-1761 182,-4207 210,-6821 28,-2615 14,-5399 74,-7222 60,-1822 195,-2683 336,-3485 141,-800 290,-1541 364,-1912 74,-370 74,-370 87,-435 14,-66 42,-197 279,696 490,-2076 980,-4150 1014,-7086 34,-2937 -388,-6734 -920,-10140 -531,-3407 -1171,-6423 -1558,-8615 -387,-2191 -520,-3559 -727,-4320 -207,-762 -488,-919 -750,-1883 -261,-965 -504,-2739 -922,-5364 -418,-2625 -1011,-6102 -1363,-9262 -352,-3161 -461,-6005 -657,-8083 -195,-2078 -476,-3391 -742,-5141 -265,-1750 -515,-3938 -906,-6579 -391,-2641 -922,-5735 -1578,-9039 -656,-3305 -1438,-6821 -2454,-10665 -1015,-3845 -2265,-8017 -3391,-11642 -1125,-3625 -2125,-6704 -2867,-9063 -500,-1588 -882,-2851 -1227,-4007 -582,483 -1312,1117 -2226,2061 -1244,1286 -2829,3146 -3966,4548 -1137,1402 -1826,2346 -2718,3456 -893,1109 -1988,2384 -2956,3755 -968,1371 -1809,2839 -2660,4265 -851,1426 -1712,2811 -2429,4007 -716,1195 -1288,2201 -1929,3445 -641,1244 -1351,2725 -2202,4548 -850,1822 -1843,3986 -2583,5670 -741,1685 -1230,2891 -1892,4514 -661,1622 -1495,3662 -2222,5477 -727,1816 -1347,3408 -1943,4975 -596,1568 -1168,3111 -1816,4713 -648,1602 -1371,3263 -2098,5061 -727,1799 -1457,3735 -2201,5619 -745,1885 -1503,3718 -2488,6150 -985,2432 -2198,5464 -3028,7555 -831,2092 -1278,3242 -1809,4717 -531,1474 -1144,3273 -1802,5037 -658,1764 -1361,3493 -2105,5405 -744,1912 -1530,4007 -2418,6412 -889,2405 -1882,5119 -3246,8923 -1364,3803 -3100,8695 -4733,13291 -1633,4596 -3163,8896 -4507,12562 -1343,3665 -2501,6697 -3500,9412 -999,2715 -1840,5113 -2694,7545 -855,2432 -1723,4899 -2550,7531 -826,2632 -1612,5430 -2280,8041 -669,2612 -1220,5037 -2033,7945 -813,2908 -1888,6298 -2880,9819 -992,3521 -1902,7172 -2591,10177 -689,3004 -1158,5361 -1667,8061 -510,2701 -1062,5747 -1689,9847 -627,4100 -1329,9254 -1881,13884 -551,4631 -951,8737 -1316,12768 -365,4031 -696,7986 -909,11252 -214,3266 -310,5843 -483,8923 -172,3080 -420,6663 -461,9405 -42,2743 124,4645 117,6016 -7,1371 -186,2212 -455,3424 -269,1213 -627,2798 -1316,4658 -689,1861 -1709,3997 -2364,5809 -654,1812 -944,3300 -888,5195 55,1895 454,4196 758,6257 303,2060 509,3879 744,6532 234,2653 496,6139 647,8241 152,2101 193,2818 193,3521 0,703 -41,1392 -86,1819 -44,427 -93,592 -334,875 -241,282 -675,682 -1099,1230 -424,548 -837,1243 -1106,2132 -150,497 -255,1055 -295,1623l0 990c9,119 21,237 37,354 134,995 527,1905 1099,2694 572,789 1323,1457 1929,1864 606,406 1068,551 1302,651 100,42 158,77 189,184 41,145 31,424 1,1039 -52,1068 -162,3149 -196,5340 -35,2191 6,4493 106,6043 100,1550 259,2350 376,3490 117,1140 193,2622 96,4248 -96,1626 -365,3397 -465,4530 -100,1134 -31,1630 448,2078 479,448 1368,847 2221,1047 852,200 1669,200 2666,283 998,82 2176,248 3349,429 1173,180 2341,377 3366,528 1025,152 1907,259 2980,392 1073,132 2338,291 3521,394 1184,103 2286,152 3511,205 1225,53 2572,112 3907,95 1335,-18 2658,-110 4026,-250 1367,-140 2780,-326 4160,-579 1379,-253 2727,-574 4143,-995 1416,-423 2901,-946 4201,-1565 1301,-618 2417,-1331 3149,-1915 732,-584 1080,-1039 1416,-1442 336,-403 660,-755 815,-1242 155,-488 141,-1111 45,-1668 -97,-556 -276,-1045 -622,-1746 -346,-701 -860,-1615 -1235,-2538 -376,-923 -614,-1857 -822,-2827 -208,-970 -388,-1975 -529,-3109 -141,-1133 -244,-2394 -327,-3972 -83,-1578 -145,-3473 -176,-4537 -15,-512 -23,-831 -27,-1039 -4,-224 -4,-317 -4,-377 0,-50 0,-78 34,-118 46,-54 155,-129 414,-306 448,-307 1344,-920 2201,-1630 858,-710 1678,-1516 2271,-2291 593,-775 958,-1519 1233,-2060 276,-541 462,-879 741,-1671 279,-792 651,-2040 861,-3380 211,-1340 259,-2773 124,-4072 -134,-1299 -451,-2463 -713,-3838 -262,-1375 -468,-2959 -413,-4548 55,-1588 372,-3180 630,-4609 259,-1430 458,-2698 576,-3804 117,-1106 151,-2050 185,-2556 35,-507 69,-576 200,-1544 131,-968 359,-2835 400,-4220 41,-1385 -103,-2287 -69,-3218 35,-930 248,-1888 834,-2959 586,-1072 1544,-2257 2429,-3397 885,-1141 1698,-2236 2236,-3270 537,-1033 799,-2005 854,-3076 55,-1072 -96,-2243 -327,-3501 -231,-1257 -541,-2601 -830,-3941 -290,-1340 -559,-2677 -665,-3814 -107,-1137 -52,-2074 20,-2652 73,-579 162,-800 493,-1771 331,-972 903,-2694 1371,-4624 469,-1929 834,-4065 1261,-6084 427,-2019 917,-3921 1275,-5616 358,-1695 586,-3183 861,-4589 276,-1405 600,-2728 954,-4289 355,-1561 741,-3359 1151,-5274 410,-1916 844,-3949 1175,-5857 331,-1909 558,-3693 885,-5382 328,-1688 755,-3280 1368,-5068 613,-1787 1413,-3772 2071,-5533 658,-1760 1175,-3297 1512,-4402 338,-1106 496,-1782 617,-2267 120,-486 203,-782 379,-1454 176,-672 444,-1720 568,-2867 124,-1147 104,-2394 93,-3018 -10,-623 -10,-623 -10,-623 0,0 0,0 824,-707 823,-706 2470,-2118 3689,-3242 1220,-1122 2012,-1956 2691,-2948 679,-993 1244,-2143 1623,-2984 379,-841 571,-1371 723,-1971 152,-599 262,-1268 524,-2508zm321966 151272c203,110 203,110 166,1230 -38,1119 -114,3359 -204,5529 -89,2171 -193,4272 -503,6195 -310,1922 -827,3666 -1192,4892 -365,1227 -578,1936 -885,2625 -307,689 -706,1358 -744,2022 -38,665 286,1327 847,2085 562,758 1361,1612 2477,2370 1117,758 2550,1420 3990,1974 1440,555 2887,1003 4413,1347 1527,345 3132,586 4668,748 1537,162 3005,245 4297,265 1292,21 2408,-20 3800,-131 1392,-110 3059,-289 4479,-489 1419,-200 2590,-420 4237,-634 1647,-214 3769,-420 5616,-503 1846,-82 3418,-41 4785,-179 1368,-138 2532,-455 3211,-889 679,-434 872,-985 932,-1511 60,-525 -12,-1024 -210,-1963 -198,-939 -522,-2317 -522,-3792 0,-1474 324,-3045 596,-4506 272,-1461 493,-2812 620,-4207 127,-1395 162,-2835 124,-4472 -38,-1636 -148,-3469 -255,-4871 -74,-968 -146,-1731 -200,-2271 -25,-242 -46,-439 -62,-589 -24,-228 -37,-349 -5,-433 37,-96 131,-145 333,-249 379,-196 1136,-589 1846,-1123 710,-534 1372,-1209 1936,-1843 565,-634 1034,-1227 1275,-1992 100,-315 160,-659 188,-1023l0 -998c-14,-212 -37,-426 -67,-642 -135,-961 -417,-1946 -1227,-3121 -809,-1175 -2146,-2539 -3166,-3700 -1020,-1161 -1723,-2119 -1964,-3418 -241,-1299 -20,-2939 279,-4544 300,-1606 679,-3177 979,-4631 300,-1454 520,-2790 582,-4768 62,-1977 -34,-4596 -272,-6766 -238,-2171 -617,-3893 -765,-5664 -148,-1771 -65,-3590 121,-5309 186,-1719 475,-3339 423,-5065 -51,-1726 -444,-3559 -720,-5450 -275,-1892 -434,-3842 -513,-5547 -79,-1705 -79,-3166 217,-4448 296,-1281 889,-2384 1213,-3648 324,-1265 379,-2691 286,-3969 -93,-1278 -334,-2408 -751,-3752 -417,-1344 -1010,-2901 -1413,-4554 -403,-1654 -617,-3404 -785,-5099 -169,-1695 -293,-3335 -455,-4851 -162,-1516 -362,-2908 -562,-4403 -199,-1495 -399,-3094 -627,-4892 -227,-1799 -482,-3797 -713,-5241 -231,-1443 -437,-2332 -630,-3982 -193,-1651 -372,-4062 -841,-6922 -469,-2859 -1227,-6167 -2005,-9667 -779,-3500 -1578,-7194 -2522,-10887 -944,-3693 -2033,-7386 -3053,-11321 -1019,-3934 -1970,-8110 -2618,-11114 -648,-3004 -992,-4837 -1412,-6339 -421,-1502 -917,-2674 -1509,-3873 -593,-1198 -1282,-2425 -2316,-5188 -1033,-2763 -2411,-7063 -3824,-11066 -1412,-4003 -2859,-7710 -4382,-11535 -1523,-3824 -3121,-7765 -4816,-12154 -1695,-4390 -3487,-9226 -6222,-16406 -2736,-7180 -6416,-16703 -10267,-26852 -3852,-10150 -7876,-20926 -10646,-28285 -2770,-7359 -4286,-11301 -6780,-16289 -2494,-4989 -5967,-11025 -9302,-15979 -3335,-4954 -6532,-8826 -8531,-11121 -1998,-2295 -2797,-3011 -3355,-3501 -39,-33 -76,-65 -112,-97 -33,536 -69,1034 -111,1462 -86,883 -195,1461 -672,3062 -476,1602 -1320,4227 -2211,7017 -890,2789 -1828,5743 -2782,9259 -953,3515 -1921,7594 -2804,11540 -883,3945 -1680,7758 -2259,11837 -578,4078 -937,8422 -1273,11766 -336,3344 -648,5688 -1016,7720 -367,2031 -789,3750 -1281,5485 -492,1734 -1055,3484 -1399,5469 -343,1984 -468,4204 -812,6696 -344,2492 -906,5258 -1414,8481 -508,3223 -961,6903 -1016,9809 -54,2907 289,5039 453,6645 165,1606 149,2684 48,3528 -102,844 -289,1453 -563,2636 -274,1182 -634,2937 -994,4692 56,-117 99,-54 170,90 166,335 483,1106 1341,2088 857,982 2256,2174 3448,3249 1192,1075 2178,2033 2670,2511 493,480 493,480 507,1358 14,879 41,2636 131,4179 89,1544 241,2873 389,4069 148,1195 293,2256 489,3704 197,1447 444,3279 724,5088 279,1809 589,3593 868,4830 279,1237 527,1926 651,2271 124,344 124,344 151,637 28,293 83,878 352,1674 269,796 751,1802 1306,2870 555,1068 1181,2198 1950,3521 768,1323 1678,2839 2387,4104 710,1264 1220,2277 1871,3565 651,1289 1443,2853 2439,4479 996,1626 2195,3314 3494,4913 1298,1598 2697,3107 3827,4131 1130,1023 1991,1560 2605,1926 613,365 978,558 1161,654 182,97 182,97 -24,617 -207,520 -621,1560 -1113,2883 -493,1323 -1065,2929 -1361,4334 -296,1406 -317,2612 -227,3949 89,1336 289,2804 706,4082 417,1278 1051,2367 1368,2911 317,545 317,545 513,917 196,372 589,1116 1223,2046 634,930 1509,2047 2508,3091 999,1043 2122,2015 2970,2738 847,724 1419,1200 1736,1685 317,486 379,982 469,1723 89,741 206,1726 444,3056 238,1329 596,3004 937,4733 342,1730 665,3514 1006,5251 341,1736 700,3425 1075,5281 376,1857 769,3883 1137,5726 369,1843 713,3504 993,5075 278,1571 492,3052 658,4517 165,1464 282,2911 375,4258 93,1347 162,2594 324,3569 162,975 417,1678 1006,3011 589,1333 1512,3297 2167,4965 655,1667 1040,3038 1257,4120 217,1082 266,1874 321,2781 55,906 117,1925 117,2869 0,944 -62,1812 -59,2639 4,827 73,1613 293,2570 221,958 593,2088 1041,3060 448,971 971,1784 1412,2487 441,703 800,1296 979,1592 179,296 179,296 -328,902 -506,607 -1519,1820 -2284,2939 -765,1120 -1281,2147 -1622,3225 -342,1078 -507,2208 -211,3280 297,1071 1054,2084 1595,3094 541,1009 865,2015 1048,2976 182,961 224,1878 258,2977 35,1099 62,2381 207,3679 145,1299 406,2615 689,3642 283,1026 586,1764 768,2281 183,516 245,813 417,1529 172,717 455,1854 806,2915 352,1061 772,2046 1020,2639 248,593 324,792 331,1450 7,658 -55,1775 62,2681 117,906 413,1602 582,1984 169,383 210,451 386,875 176,424 486,1203 1037,1974 551,772 1344,1537 1943,2029 599,493 1006,714 1209,824z"/>
	</g>
	<g class="punho">
		<path d="M49190 411502c-141,-1133 -244,-2394 -327,-3972 -83,-1578 -145,-3473 -176,-4537 -15,-512 -23,-831 -27,-1039 -4,-224 -4,-317 -4,-377 0,-50 0,-78 34,-118 57,-967 116,-1933 188,-2894 84,-1125 186,-2242 100,-3078 -86,-836 -359,-1391 -973,-1914 -613,-524 -1567,-1016 -2719,-1493 -1152,-477 -2504,-937 -4688,-1215 -2184,-277 -5200,-371 -8165,-355 -2965,15 -5880,140 -8415,336 -2535,195 -4692,461 -6637,808 -1946,348 -3681,778 -5271,1231 -1590,453 -3035,930 -4227,1442 -1191,511 -2129,1058 -2598,1465 -469,406 -469,672 -512,1555 -43,885 -130,2387 -217,3890 41,145 31,424 1,1039 -52,1068 -162,3149 -196,5340 -35,2191 6,4493 106,6043 100,1550 259,2350 376,3490 117,1140 193,2622 96,4248 -96,1626 -365,3397 -465,4530 -100,1134 -31,1630 448,2078 479,448 1368,847 2221,1047 852,200 1669,200 2666,283 998,82 2176,248 3349,429 1173,180 2341,377 3366,528 1025,152 1907,259 2980,392 1073,132 2338,291 3521,394 1184,103 2286,152 3511,205 1225,53 2572,112 3907,95 1335,-18 2658,-110 4026,-250 1367,-140 2780,-326 4160,-579 1379,-253 2727,-574 4143,-995 1416,-423 2901,-946 4201,-1565 1301,-618 2417,-1331 3149,-1915 732,-584 1080,-1039 1416,-1442 336,-403 660,-755 815,-1242 155,-488 141,-1111 45,-1668 -97,-556 -276,-1045 -622,-1746 -346,-701 -860,-1615 -1235,-2538 -376,-923 -614,-1857 -822,-2827 -208,-970 -388,-1975 -529,-3109zm360215 748c-310,1922 -827,3666 -1192,4892 -365,1227 -578,1936 -885,2625 -307,689 -706,1358 -744,2022 -38,665 286,1327 847,2085 562,758 1361,1612 2477,2370 1117,758 2550,1420 3990,1974 1440,555 2887,1003 4413,1347 1527,345 3132,586 4668,748 1537,162 3005,245 4297,265 1292,21 2408,-20 3800,-131 1392,-110 3059,-289 4479,-489 1419,-200 2590,-420 4237,-634 1647,-214 3769,-420 5616,-503 1846,-82 3418,-41 4785,-179 1368,-138 2532,-455 3211,-889 679,-434 872,-985 932,-1511 60,-525 -12,-1024 -210,-1963 -198,-939 -522,-2317 -522,-3792 0,-1474 324,-3045 596,-4506 272,-1461 493,-2812 620,-4207 127,-1395 162,-2835 124,-4472 -38,-1636 -148,-3469 -255,-4871 -74,-968 -146,-1731 -200,-2271 -25,-242 -46,-439 -62,-589 -24,-228 -37,-349 -5,-433 -6,-100 -12,-207 -19,-325 -41,-669 -99,-1670 -175,-2764 -75,-1093 -169,-2281 -353,-3109 -183,-829 -457,-1297 -1156,-1782 -699,-484 -1825,-984 -3880,-1590 -2055,-605 -5039,-1316 -7809,-1817 -2770,-500 -5325,-788 -7837,-937 -2512,-149 -4981,-156 -7391,-137 -2411,20 -4763,67 -6755,285 -1992,219 -3626,610 -5071,1180 -1446,570 -2703,1321 -3438,1801 -734,481 -945,692 -1004,1290 -58,598 35,1582 130,2990 94,1409 188,3241 282,5073 203,110 203,110 166,1230 -38,1119 -114,3359 -204,5529 -89,2171 -193,4272 -503,6195z"/>
	</g>
	<g class="barra">
		<path d="M122190 385937c-863,-263 -1376,-501 -1889,-739 29,123 26,255 -2,479 -54,451 -206,1274 -444,2603 -238,1328 -562,3160 -851,5224 -289,2064 -544,4359 -785,6643 -242,2284 -469,4558 -665,7000 -197,2443 -362,5054 -483,6570 -120,1516 -196,1936 31,2415 228,479 758,1017 1857,1616 1099,600 2767,1261 5006,1798 2240,538 5051,951 9095,1433 4045,483 9323,1034 14319,1454 4995,421 9708,710 13891,862 4182,151 7834,165 11865,200 4031,34 8441,89 13147,172 4706,82 9709,193 12816,227 3108,35 4320,-7 5089,-34 768,-28 1092,-42 1381,-59 290,-17 545,-38 2784,7 2239,45 6463,155 8868,200 2405,45 2990,24 3542,93 551,69 1068,227 1991,365 923,138 2253,255 4127,248 1875,-7 4293,-138 7748,-213 3456,-76 7949,-97 11828,-131 3879,-35 7145,-83 11920,-142 4775,-58 11060,-127 17316,-203 6257,-76 12486,-158 18239,-317 5753,-158 11032,-393 15827,-641 4796,-248 9109,-510 13526,-930 4417,-420 8937,-999 11921,-1378 2983,-379 4430,-558 5450,-896 1020,-337 1612,-833 1881,-1261 269,-427 214,-785 69,-2501 -145,-1716 -379,-4789 -634,-7758 -255,-2970 -530,-5837 -923,-9158 -393,-3321 -903,-7097 -1176,-9126 -273,-2029 -309,-2312 -328,-2472 -19,-160 -21,-198 196,-361 -258,167 -516,334 -1649,492 -1133,158 -3141,306 -5856,599 -2715,293 -6137,731 -9653,1083 -3516,351 -7126,617 -12642,898 -5516,282 -12939,579 -19509,727 -6571,148 -12290,148 -17838,156 -5547,8 -10923,24 -16392,172 -5469,148 -11032,430 -16029,484 -4997,55 -9427,-117 -12658,-250 -3231,-133 -5262,-226 -10235,-355 -4974,-129 -12889,-292 -18835,-374 -5946,-82 -9923,-82 -13876,-113 -3954,-32 -7884,-94 -11654,-149 -3770,-55 -7379,-102 -10223,-188 -2844,-86 -4923,-210 -6874,-328 -1952,-117 -3776,-226 -5550,-353 -1774,-127 -3496,-271 -5067,-393 -1571,-121 -2989,-218 -4542,-394 -1553,-176 -3241,-430 -4950,-657 -1709,-226 -3440,-426 -5149,-672 -1710,-246 -3397,-539 -4847,-830 -1449,-291 -2660,-580 -3522,-844z"/>
	</g>	
	<g class="botao">
		<path d="M228305 412337c-359,434 -656,981 -820,1571 -164,590 -195,1223 -148,1773 46,552 171,1020 461,1469 288,450 742,879 1214,1211 473,332 965,567 1575,688 609,121 1336,129 2012,-82 676,-211 1301,-641 1777,-1114 477,-472 805,-988 996,-1515 192,-528 246,-1067 231,-1606 -16,-539 -102,-1078 -262,-1508 -160,-430 -394,-750 -727,-1070 -332,-321 -761,-641 -1301,-848 -539,-207 -1187,-301 -1839,-289 -653,12 -1309,129 -1848,347 -539,219 -962,540 -1321,973zm1257 -345901c765,535 1813,754 2621,801 809,47 1379,-78 1871,-336 493,-258 907,-648 1184,-1109 278,-461 418,-993 414,-1555 -4,-563 -152,-1157 -441,-1727 -289,-570 -719,-1118 -1324,-1520 -606,-402 -1387,-660 -2095,-781 -707,-121 -1340,-106 -1808,-8 -469,98 -774,277 -1137,594 -363,316 -785,769 -965,1359 -180,590 -117,1317 156,2106 274,789 758,1641 1524,2176zm-99 59923c645,187 1356,211 2126,31 769,-180 1597,-563 2156,-1117 559,-555 848,-1282 949,-1950 102,-668 16,-1277 -195,-1848 -211,-570 -547,-1101 -981,-1531 -433,-430 -964,-758 -1504,-965 -538,-207 -1086,-293 -1750,-270 -664,24 -1445,157 -2016,423 -570,265 -929,663 -1164,941 -234,277 -344,434 -449,750 -105,316 -207,793 -219,1325 -11,531 66,1117 289,1679 223,563 590,1102 1063,1547 473,446 1051,797 1695,985zm746 69779c696,180 1524,219 2286,-43 761,-262 1457,-824 1929,-1418 473,-594 723,-1219 840,-1902 118,-684 102,-1426 -78,-2095 -179,-668 -523,-1261 -1062,-1730 -539,-469 -1274,-813 -1922,-985 -649,-172 -1211,-172 -1731,-105 -519,66 -996,199 -1297,324 -301,125 -426,242 -656,500 -231,258 -567,656 -852,1137 -285,480 -520,1043 -598,1688 -78,644 0,1371 247,2020 246,648 659,1218 1148,1664 488,445 1051,765 1746,945zm-646 70115c762,219 1528,141 2285,-106 758,-246 1508,-660 2063,-1238 555,-578 914,-1320 992,-2106 78,-785 -125,-1613 -386,-2289 -262,-676 -582,-1199 -965,-1578 -383,-379 -829,-614 -1403,-793 -574,-180 -1277,-305 -2004,-211 -727,93 -1477,406 -2027,808 -551,403 -903,895 -1161,1458 -258,562 -422,1195 -480,1734 -59,539 -12,985 140,1481 153,496 410,1043 918,1574 508,532 1266,1047 2028,1266zm949 69673c610,82 1258,43 1848,-129 590,-172 1121,-476 1535,-820 415,-344 712,-727 942,-1180 231,-453 395,-976 485,-1594 89,-617 105,-1328 -153,-2016 -258,-687 -789,-1351 -1313,-1770 -523,-417 -1039,-589 -1597,-707 -559,-117 -1161,-179 -1762,-85 -602,93 -1204,343 -1692,703 -488,359 -863,828 -1183,1371 -321,543 -587,1160 -645,1789 -59,629 89,1270 258,1742 168,473 355,778 613,1118 258,340 586,715 1035,1004 450,289 1020,492 1629,574zm18 65528c613,160 1145,192 1875,16 731,-176 1660,-559 2293,-1325 633,-765 969,-1914 1001,-2817 31,-902 -242,-1558 -700,-2164 -457,-605 -1097,-1160 -1703,-1437 -605,-278 -1176,-278 -1699,-254 -524,23 -1001,70 -1489,246 -488,176 -988,480 -1418,863 -430,383 -789,844 -1027,1281 -239,438 -356,852 -391,1388 -35,535 12,1191 234,1789 223,597 621,1137 1168,1551 547,414 1243,703 1856,863z"/>
	</g>
	<g class="bolso">
		<path d="M149380 261954c320,-3586 648,-6133 1031,-7891 383,-1758 821,-2727 1039,-3211 219,-485 219,-485 219,-485 0,0 0,0 -289,70 -289,71 -867,212 -1899,235 -1031,23 -2516,-70 -3726,-149 -1211,-78 -2149,-140 -2618,-172 -469,-31 -469,-31 -469,-31 0,0 0,0 -117,1719 -117,1719 -352,5157 -531,8501 -180,3344 -305,6594 -438,9821 -133,3227 -273,6430 -328,9376 -55,2946 -23,5633 47,8399 70,2766 179,5610 266,8001 86,2391 148,4329 203,6399 54,2071 101,4274 -125,7204 -227,2930 -727,6586 -1188,9727 -461,3141 -883,5766 -1445,8860 -563,3095 -1266,6657 -1805,9356 -539,2700 -915,4537 -1102,5454 -188,919 -188,919 -188,919 0,0 0,0 24,11 23,12 70,35 1109,313 1040,277 3071,809 4087,1074 1016,266 1016,266 1016,273 0,8 0,24 -63,-1015 -62,-1039 -187,-3133 86,-5274 273,-2141 945,-4329 1586,-7040 641,-2711 1250,-5946 1727,-9142 477,-3195 820,-6352 1140,-10266 321,-3914 618,-8587 844,-12650 227,-4062 383,-7516 532,-11672 148,-4157 289,-9017 515,-13760 227,-4742 539,-9368 860,-12954zm154890 -9794c551,871 1653,2613 2461,4578 809,1965 1324,4153 1758,6114 434,1962 785,3696 1219,6657 433,2961 949,7149 1300,11196 352,4047 539,7954 773,12188 235,4235 516,8798 852,13728 336,4930 727,10228 969,14697 242,4469 336,8110 719,11220 383,3109 1054,5688 1418,8317 363,2629 418,5309 445,6649 27,1340 27,1340 27,1340 0,0 0,0 344,-133 344,-133 1032,-398 1852,-644 820,-246 1773,-473 2250,-586 477,-114 477,-114 477,-114 0,0 0,0 -67,-922 -66,-922 -199,-2765 -553,-8428 -353,-5663 -928,-15144 -1559,-24698 -631,-9554 -1318,-19180 -1803,-25383 -484,-6204 -765,-8986 -1351,-12619 -586,-3633 -1477,-8118 -2212,-12134 -734,-4016 -1312,-7563 -1709,-9561 -396,-1998 -611,-2448 -742,-2668 -130,-221 -177,-213 -1216,-92 -1038,122 -3070,356 -4269,446 -1200,90 -1567,35 -1750,8 -184,-28 -184,-28 -184,-28 0,0 0,0 551,872z"/>
	</g>
	<g class="golas">
		<path class="fundo_gola" d="M215101 41898c488,683 992,1395 1553,2235 560,840 1178,1808 1738,2736 561,928 1065,1815 1706,2944 641,1129 1418,2500 1952,3479 533,978 822,1565 1012,1918 124,233 206,364 273,462 925,488 1612,964 2075,1269 640,422 852,515 957,562 106,47 106,47 379,-117 273,-164 821,-492 1614,-656 793,-165 1832,-165 3133,-379 1300,-215 2863,-645 4262,-1078 408,-585 815,-1170 1355,-2048 540,-879 1212,-2051 1993,-3258 782,-1207 1672,-2450 2395,-3520 723,-1070 1277,-1969 1977,-3020 699,-1051 1543,-2254 2515,-3609 973,-1356 2075,-2864 2626,-3618 551,-754 551,-754 558,-754 8,0 24,0 -1175,16 -1200,15 -3614,47 -6654,58 -3039,12 -6703,4 -10423,20 -3719,15 -7493,54 -10950,31 -3457,-23 -6598,-109 -9740,-195 575,727 1149,1454 1722,2209 572,754 1143,1535 1664,2254 522,719 995,1375 1483,2059z"/>
		<path class="gola" d="M182217 42478c813,719 2001,1742 3286,2637 1285,895 2668,1660 4356,2387 1687,727 3680,1414 6047,2047 2368,633 5111,1211 8623,1832 3512,621 7793,1286 10938,1899 3145,613 5153,1176 6693,1832 427,183 819,372 1175,560 -67,-98 -149,-229 -273,-462 -190,-353 -479,-940 -1012,-1918 -534,-979 -1311,-2350 -1952,-3479 -641,-1129 -1145,-2016 -1706,-2944 -560,-928 -1178,-1896 -1738,-2736 -561,-840 -1065,-1552 -1553,-2235 -488,-684 -961,-1340 -1483,-2059 -521,-719 -1092,-1500 -1664,-2254 -573,-755 -1147,-1482 -1722,-2209 3142,86 6283,172 9740,195 3457,23 7231,-16 10950,-31 3720,-16 7384,-8 10423,-20 3040,-11 5454,-43 6654,-58 1199,-16 1183,-16 1175,-16 -7,0 -7,0 -558,754 -551,754 -1653,2262 -2626,3618 -972,1355 -1816,2558 -2515,3609 -700,1051 -1254,1950 -1977,3020 -723,1070 -1613,2313 -2395,3520 -781,1207 -1453,2379 -1993,3258 -540,878 -947,1463 -1355,2048 1399,-434 2634,-872 4318,-1251 1683,-379 3817,-699 5918,-1000 2102,-301 4173,-582 6275,-934 2101,-351 4235,-774 6297,-1227 2063,-453 4056,-937 5931,-1449 1875,-512 3633,-1051 5274,-1754 1641,-703 3164,-1570 4352,-2344 1187,-773 2039,-1453 2840,-2258 801,-805 1551,-1735 2195,-2696 645,-961 1184,-1953 1598,-2965 414,-1012 703,-2043 781,-2840 79,-797 -54,-1360 -152,-1688 -97,-328 -160,-422 -551,-804 -390,-383 -1109,-1056 -1641,-1523 -454,-400 -771,-650 -1069,-879 -47,-23 -94,-59 -152,-117 -67,-66 -150,-161 -268,-298 -348,-404 -1003,-1168 -1781,-2240 -779,-1071 -1682,-2449 -2491,-4420 -810,-1971 -1527,-4534 -1892,-6787 -365,-2253 -379,-4196 -406,-5781 -28,-1585 -69,-2811 -555,-3807 -486,-996 -1416,-1761 -2515,-2477 -1099,-717 -2367,-1385 -4296,-1919 -1929,-534 -4520,-934 -7638,-1220 -3118,-285 -6763,-458 -10143,-537 -3380,-79 -6494,-65 -9605,-28 -3111,38 -6219,100 -9722,107 -3504,7 -7404,-41 -11680,11 -4275,51 -8927,203 -12134,451 -3207,248 -4971,592 -6480,999 -1509,407 -2763,875 -3807,1399 -1044,523 -1878,1102 -2557,1843 -678,741 -1202,1643 -1429,2842 -228,1199 -159,2694 -238,4255 -79,1561 -307,3187 -593,4809 -286,1623 -630,3242 -1250,4851 -620,1609 -1516,3208 -2399,4557 -883,1349 -1753,2449 -2188,2999 -435,550 -435,550 -461,548 -859,743 -1717,1486 -2283,1994 -566,509 -839,782 -988,1376 -148,594 -172,1508 243,2871 413,1363 1265,3176 1910,4290 644,1113 1082,1527 1894,2246z"/>
	</g>	
</svg>