<?xml version="1.0" encoding="UTF-8"?>
<!DOCTYPE svg PUBLIC "-//W3C//DTD SVG 1.1//EN" "http://www.w3.org/Graphics/SVG/1.1/DTD/svg11.dtd">
<svg version="1.1" class="detalhes_jaqueta_college" xmlns="http://www.w3.org/2000/svg" xmlns:xlink="http://www.w3.org/1999/xlink"
	width="460px" height="440px"  viewBox="0 0 460000 440585"  xml:space="preserve" 
	shape-rendering="geometricPrecision" text-rendering="geometricPrecision" image-rendering="optimizeQuality" fill-rule="evenodd" clip-rule="evenodd">
	<g class="manga">
		<path d="M81539 266452c-181,-1623 -571,-3604 -956,-5154 -385,-1550 -765,-2668 -1002,-3316 -236,-647 -331,-825 -353,-932 -23,-106 26,-141 519,-536 493,-395 1430,-1151 2327,-2015 896,-863 1753,-1835 2756,-3050 1003,-1216 2152,-2675 3020,-3802 867,-1127 1452,-1921 1978,-2753 526,-833 993,-1703 1503,-2649 510,-945 1064,-1966 1685,-3150 622,-1184 1312,-2532 1841,-3575 529,-1043 899,-1782 1463,-2687 564,-906 1323,-1978 1952,-3049 629,-1071 1127,-2141 1602,-3286 475,-1146 928,-2369 1339,-3485 411,-1116 780,-2126 977,-2776 197,-649 221,-938 294,-1426 72,-487 192,-1173 311,-1650 118,-476 235,-742 358,-1266 122,-525 251,-1306 402,-2184 151,-878 323,-1851 482,-2747 160,-896 306,-1715 577,-3555 271,-1841 666,-4704 884,-6675 219,-1971 261,-3051 282,-3655 21,-604 20,-733 22,-798 2,-66 5,-67 601,-496 596,-428 1784,-1283 2602,-2029 818,-747 1268,-1384 1590,-1964 322,-580 517,-1102 684,-1736 167,-634 307,-1379 375,-1841 68,-461 64,-639 73,-738 6,-72 19,-103 92,162 13,-708 8,-1492 -64,-2249 -109,-1149 -375,-2235 -563,-3697 -187,-1461 -296,-3298 -304,-4998 -8,-1699 86,-3263 279,-5060 194,-1798 487,-3830 680,-5698 193,-1868 287,-3572 397,-5334 109,-1763 234,-3584 105,-5409 -129,-1824 -512,-3653 -805,-5388 -293,-1735 -496,-3376 -743,-5322 -246,-1946 -535,-4197 -914,-6084 -379,-1888 -848,-3412 -1399,-5135 -551,-1723 -1184,-3646 -1625,-5471 -442,-1825 -692,-3552 -926,-5306 -235,-1755 -454,-3537 -579,-5784 -125,-2247 -156,-4958 -203,-7268 -47,-2309 -109,-4216 -453,-6021 -344,-1806 -970,-3510 -1524,-5053 -555,-1543 -1040,-2927 -1255,-4568 -215,-1641 -160,-3540 -316,-5213 -156,-1672 -524,-3118 -844,-4337 -321,-1219 -594,-2212 -1079,-3478 -484,-1266 -1180,-2806 -1543,-3798 -363,-993 -395,-1438 -661,-2227 -265,-790 -765,-1923 -1194,-2855 -429,-932 -787,-1663 -1049,-2349 -178,-465 -313,-909 -433,-1346 -1296,903 -2240,1580 -3548,2800 -1567,1463 -3656,3706 -6164,6659 -2507,2954 -5433,6618 -7209,9083 -1777,2466 -2403,3734 -3010,4806 -606,1072 -1191,1948 -1895,3186 -704,1240 -1526,2842 -2570,5154 -1045,2313 -2313,5336 -3762,8721 -1449,3385 -3079,7133 -4618,10762 -1539,3629 -2988,7139 -4312,10434 -1323,3295 -2521,6373 -3872,9633 -1352,3260 -2856,6701 -4249,10093 -1394,3392 -2675,6736 -3755,9606 -1079,2870 -1957,5266 -2995,7962 -1038,2695 -2236,5690 -3253,8386 -1017,2696 -1853,5092 -2786,7606 -933,2515 -1964,5148 -3086,8004 -1121,2855 -2333,5934 -3587,9173 -1254,3239 -2550,6638 -3720,9849 -1170,3211 -2215,6235 -3357,9481 -1142,3246 -2382,6714 -3525,10009 -1142,3295 -2187,6415 -3169,9626 -982,3211 -1902,6513 -2835,10769 -933,4256 -1881,9466 -2730,14105 -850,4639 -1603,8707 -2334,12434 -731,3726 -1442,7111 -1957,10316 -516,3204 -836,6227 -1149,9201 -314,2974 -621,5900 -892,9369 -272,3469 -509,7481 -718,10775 -209,3295 -390,5872 -828,8387 -439,2514 -1136,4966 -1136,7202 0,2236 697,4256 1108,6478 411,2222 536,4646 522,6987 -14,2340 -167,4597 -237,7104 -69,2508 -55,5266 63,7885 119,2619 341,5099 313,8073 -27,2975 -306,6444 21,9160 328,2717 1261,4681 1721,6234 460,1554 446,2696 244,4075 -202,1379 -593,2995 -1024,4305 -432,1309 -906,2312 -1400,3002 -495,689 -1010,1066 -1491,1797 -481,732 -926,1818 -1268,2953 -149,498 -279,1005 -355,1521l0 1808c12,72 26,144 42,217 265,1226 1031,2494 1915,3580 885,1087 1888,1992 2494,2466 606,473 815,515 994,576 180,61 329,141 404,181 75,41 75,41 66,1587 -8,1546 -26,4639 258,7390 284,2752 869,5162 1141,6910 272,1748 230,2835 -7,4089 -237,1254 -669,2674 -669,3733 0,1059 432,1756 1205,2341 774,585 1888,1059 4319,1588 2431,529 6178,1114 9501,1560 3323,446 6220,752 9020,627 2800,-125 5503,-683 8038,-1289 2536,-605 4904,-1260 6628,-1941 1724,-681 2804,-1388 3894,-2142 1090,-754 2191,-1555 3107,-2387 915,-833 1647,-1697 2149,-2463 501,-766 773,-1435 894,-1989 122,-553 95,-992 -160,-1633 -254,-641 -735,-1484 -1135,-2327 -401,-842 -721,-1685 -1013,-2967 -293,-1282 -558,-3002 -819,-4876 -261,-1874 -519,-3900 -644,-5373 -126,-1474 -119,-2393 -122,-2912 -2,-248 -6,-404 22,-541 31,-150 101,-276 254,-473 295,-376 897,-1010 1352,-1630 454,-620 761,-1226 959,-1671 199,-446 290,-732 519,-1268 230,-537 599,-1324 850,-2334 251,-1010 383,-2242 383,-3204 0,-961 -132,-1651 -198,-1995 -66,-345 -66,-345 108,-763 174,-418 522,-1254 735,-2038 212,-783 289,-1514 668,-2472 380,-958 1063,-2142 1479,-3356 416,-1214 566,-2457 723,-4033 156,-1576 320,-3485 583,-5024 263,-1539 625,-2709 1057,-3887 432,-1177 933,-2361 933,-3963 0,-1602 -501,-3622 -1153,-5175 -651,-1554 -1452,-2641 -2005,-3355 -554,-713 -861,-1055 -1014,-1225 -153,-171 -153,-171 146,-833 300,-661 899,-1985 1188,-3051 289,-1065 268,-1873 139,-3023 -129,-1149 -366,-2640 -540,-3827 -174,-1188 -285,-2072 49,-3525 334,-1452 1115,-3472 1881,-5301 766,-1828 1518,-3465 2030,-4673 512,-1209 784,-1989 923,-2814 139,-826 146,-1697 0,-2682 -146,-986 -446,-2086 -505,-3403 -59,-1316 122,-2849 390,-4667 269,-1818 624,-3921 1003,-6140 380,-2218 784,-4552 1191,-6889 408,-2336 819,-4677 1153,-7038 335,-2362 592,-4744 846,-6938 255,-2194 506,-4200 631,-5203 125,-1003 125,-1003 662,-1470 536,-466 1609,-1400 2862,-2542 1254,-1142 2689,-2494 3879,-3901 1189,-1407 2133,-2870 2841,-4012 709,-1142 1183,-1964 1667,-3039 484,-1074 979,-2401 1240,-3697 261,-1295 289,-2560 108,-4183zm328442 142846c58,93 27,276 -66,830 -139,829 -418,2487 -794,4744 -376,2256 -850,5112 -1511,7181 -662,2069 -1512,3350 -1930,4263 -418,912 -404,1456 -118,2278 285,822 843,1922 1887,3099 1045,1178 2578,2431 4995,3748 2417,1316 5718,2695 9340,3615 3623,919 7565,1379 11152,1497 3588,119 6819,-104 9912,-619 3093,-516 6046,-1324 7829,-1944 1784,-620 2397,-1052 2877,-1511 481,-460 829,-948 899,-2208 69,-1261 -139,-3295 -286,-5385 -146,-2089 -230,-4235 -90,-6540 139,-2306 501,-4772 689,-6513 188,-1742 202,-2758 209,-3267 1,-36 1,-70 2,-102 8,-409 43,-434 528,-783 522,-376 1567,-1128 2500,-2291 934,-1163 1755,-2738 1964,-4319 13,-92 23,-185 31,-278l0 -1313c-79,-997 -311,-1901 -476,-2525 -251,-948 -349,-1254 -481,-2292 -132,-1038 -299,-2807 -320,-5343 -21,-2535 104,-5837 27,-8484 -76,-2647 -355,-4639 -188,-6554 168,-1916 780,-3755 1157,-5482 122,-564 220,-1115 281,-1690l0 -2798c-41,-434 -102,-895 -184,-1391 -418,-2535 -1393,-5990 -1978,-10420 -585,-4431 -780,-9836 -864,-15520 -83,-5683 -55,-11646 -306,-18639 -251,-6994 -780,-15018 -1296,-21440 -515,-6422 -1017,-11242 -1895,-16940 -877,-5698 -2131,-12273 -3427,-18877 -1295,-6603 -2632,-13234 -4792,-21077 -2159,-7844 -5140,-16899 -7745,-24268 -2605,-7370 -4834,-13053 -7509,-20019 -2675,-6966 -5795,-15213 -9000,-23585 -3204,-8373 -6492,-16871 -10420,-26455 -3929,-9585 -8498,-20256 -12259,-29395 -3762,-9138 -6715,-16745 -10351,-23613 -3636,-6868 -7955,-12997 -11270,-17135 -3316,-4137 -5628,-6283 -7356,-7927 -781,-743 -1442,-1383 -2105,-1988 -434,164 -849,371 -1228,665 -774,597 -1399,1551 -1860,2293 -461,743 -758,1274 -1082,2071 -325,797 -676,1861 -1282,3525 -606,1665 -1465,3931 -2122,5795 -656,1864 -1109,3325 -1414,4920 -305,1594 -461,3321 -551,4532 -90,1212 -113,1907 -450,3271 -336,1363 -984,3395 -1527,5209 -543,1813 -981,3407 -1130,5021 -148,1613 -8,3247 -219,6303 -211,3055 -774,7534 -1532,11898 -758,4365 -1711,8616 -2508,12352 -797,3735 -1438,6955 -1829,9347 -391,2391 -531,3954 -594,6095 -62,2141 -47,4861 289,8065 336,3204 993,6893 1501,10324 508,3431 867,6603 969,8518 101,1915 -55,2571 -297,3517 -172,670 -386,1485 -614,2342 0,113 -1,237 -2,373 -14,1653 -97,5080 0,7957 97,2877 376,5203 718,7725 341,2521 745,5238 1372,7676 627,2438 1476,4597 2438,6742 961,2146 2034,4277 3406,6652 1372,2375 3044,4995 4548,7112 1505,2118 2842,3734 4033,5092 1191,1358 2236,2459 3281,3392 1045,934 2090,1700 2612,2083 522,383 522,383 718,1839 195,1455 585,4367 975,6317 390,1951 780,2940 1212,4458 431,1519 905,3567 1504,5336 599,1769 1324,3260 2118,4590 794,1331 1658,2501 2577,3539 920,1037 1895,1943 2800,2716 906,773 1742,1414 2160,1735 418,320 418,320 389,1065 -27,746 -83,2236 98,3678 181,1442 599,2835 1317,4876 717,2041 1734,4730 2451,6534 718,1804 1136,2723 1644,4416 509,1692 1108,4158 1686,7766 578,3609 1135,8359 1665,11821 529,3462 1031,5635 1449,8198 418,2564 752,5517 1079,8338 328,2821 648,5510 1101,7822 452,2313 1038,4249 1483,5475 446,1226 753,1742 892,2675 139,933 111,2285 -209,3622 -320,1337 -933,2661 -1546,3748 -613,1086 -1226,1936 -1491,3023 -265,1086 -181,2410 279,3573 459,1163 1295,2166 2110,3427 815,1261 1609,2779 2069,4312 460,1532 585,3078 655,4478 69,1400 83,2654 313,3880 230,1226 676,2424 899,3023 223,599 223,599 445,1839 223,1240 669,3720 1045,5531 377,1811 683,2953 662,4123 -21,1171 -369,2369 -947,3511 -578,1142 -1387,2229 -1867,3622 -481,1393 -634,3093 -209,4751 425,1657 1428,3273 2355,4687 926,1414 1776,2626 2430,3337 655,710 1115,919 1345,1024 76,34 127,58 156,103z"/>
	</g>	
	<g class="punho">	
		<path d="M42380 412063c-1954,579 -3876,1016 -6666,1423 -2790,406 -6447,781 -9745,836 -3298,55 -6237,-211 -8581,-485 -2345,-273 -4095,-555 -5919,-1165 -1825,-610 -3722,-1549 -5620,-2488 75,41 75,41 66,1587 -8,1546 -26,4639 258,7390 284,2752 869,5162 1141,6910 272,1748 230,2835 -7,4089 -237,1254 -669,2674 -669,3733 0,1059 432,1756 1205,2341 774,585 1888,1059 4319,1588 2431,529 6178,1114 9501,1560 3323,446 6220,752 9020,627 2800,-125 5503,-683 8038,-1289 2536,-605 4904,-1260 6628,-1941 1724,-681 2804,-1388 3894,-2142 1090,-754 2191,-1555 3107,-2387 915,-833 1647,-1697 2149,-2463 501,-766 773,-1435 894,-1989 122,-553 95,-992 -160,-1633 -254,-641 -735,-1484 -1135,-2327 -401,-842 -721,-1685 -1013,-2967 -293,-1282 -558,-3002 -819,-4876 -261,-1874 -519,-3900 -644,-5373 -126,-1474 -119,-2393 -122,-2912 -2,-248 -6,-404 22,-541 0,0 0,0 -536,479 -537,480 -1609,1440 -3138,2279 -1529,839 -3514,1558 -5468,2136zm363300 14253c-418,912 -404,1456 -118,2278 285,822 843,1922 1887,3099 1045,1178 2578,2431 4995,3748 2417,1316 5718,2695 9340,3615 3623,919 7565,1379 11152,1497 3588,119 6819,-104 9912,-619 3093,-516 6046,-1324 7829,-1944 1784,-620 2397,-1052 2877,-1511 481,-460 829,-948 899,-2208 69,-1261 -139,-3295 -286,-5385 -146,-2089 -230,-4235 -90,-6540 139,-2306 501,-4772 689,-6513 188,-1742 202,-2758 209,-3267 1,-36 1,-70 2,-102 -2094,945 -4188,1889 -6532,2549 -2344,660 -4938,1035 -8478,1238 -3540,203 -8026,235 -11348,-94 -3321,-328 -5478,-1016 -7823,-1797 -2344,-782 -4876,-1657 -6710,-2516 -1834,-859 -2969,-1703 -4105,-2546 58,93 27,276 -66,830 -139,829 -418,2487 -794,4744 -376,2256 -850,5112 -1511,7181 -662,2069 -1512,3350 -1930,4263z"/>
	</g>
	<g class="barra">
		<path d="M117339 417578c-139,2305 -306,5273 -459,7230 -154,1957 -293,2905 -42,3594 251,690 891,1122 2250,1581 1358,460 3434,948 6171,1268 2738,321 6137,474 10650,690 4514,216 10142,494 14893,648 4750,153 8623,181 13471,223 4848,41 10671,97 16947,348 6276,250 13005,696 19859,842 6854,147 13833,-6 20137,-139 6304,-132 11932,-244 17525,-425 5594,-181 11152,-431 16244,-731 5092,-300 9717,-648 15059,-1045 5343,-397 11403,-843 17902,-1302 6499,-460 13436,-934 20513,-1345 7077,-411 14293,-759 19769,-1177 5474,-418 9208,-905 11531,-1292 2323,-387 3235,-672 3692,-960 456,-287 456,-576 230,-3162 -227,-2586 -680,-7469 -1108,-11589 -428,-4120 -832,-7477 -1229,-10229 -397,-2751 -788,-4897 -983,-5969 -195,-1073 -195,-1073 63,-1101 145,-16 372,-40 602,-127 -652,59 -1304,118 -2924,292 -1620,174 -4206,463 -7211,874 -3005,410 -6428,941 -9495,1266 -3068,324 -5779,441 -8734,613 -2954,172 -6150,399 -9139,660 -2989,262 -5771,559 -8280,786 -2509,226 -4744,383 -7268,590 -2525,207 -5338,465 -8069,676 -2731,211 -5381,375 -8710,555 -3329,180 -7338,375 -10636,610 -3298,234 -5885,507 -9042,738 -3157,231 -6885,418 -10656,602 -3771,184 -7584,363 -11124,457 -3541,94 -6807,102 -9593,129 -2786,27 -5092,74 -7764,35 -2673,-39 -5713,-164 -9015,-336 -3302,-172 -6866,-391 -10226,-633 -3361,-242 -6518,-508 -9300,-719 -2782,-211 -5189,-367 -8217,-406 -3029,-39 -6678,39 -9933,121 -3255,82 -6115,168 -8636,164 -2520,-4 -4700,-98 -8412,-246 -3713,-149 -8957,-352 -13055,-602 -4100,-250 -7054,-547 -9561,-914 -2508,-366 -4568,-802 -6629,-1238 94,49 157,123 171,299 28,341 -125,1066 -466,3496 -342,2431 -871,6569 -1192,9460 -320,2890 -431,4534 -571,6840z"/>
	</g>
	<g class="golas_verso">
		<path class="gola" d="M207345 31188c4236,-35 8425,-106 13622,-117 5197,-12 11402,35 16525,78 5123,43 9164,82 13353,97 4188,16 8526,8 12043,114 3517,105 6213,324 8495,679 2282,356 4150,848 6331,778 706,-23 1445,-105 2206,-226 -247,-13 -458,-20 -601,-25 -307,-10 -307,-10 -1087,-951 -780,-940 -2340,-2821 -3545,-5579 -1206,-2758 -2055,-6394 -2425,-9167 -368,-2772 -257,-4680 -564,-6143 -306,-1463 -1031,-2480 -2173,-3553 -1142,-1072 -2703,-2201 -4792,-3218 -2090,-1017 -4709,-1922 -7544,-2535 -2835,-613 -5886,-933 -9772,-1122 -3887,-188 -8610,-244 -13813,-278 -5203,-35 -10887,-49 -16320,181 -5433,230 -10616,703 -14558,1546 -3943,843 -6645,2055 -8672,3204 -2027,1150 -3379,2236 -4214,3469 -836,1233 -1157,2612 -1352,4256 -195,1644 -264,3553 -571,5719 -306,2166 -850,4590 -1651,6714 -801,2125 -1860,3950 -2681,5176 -822,1226 -1408,1853 -1700,2166 -153,164 -226,242 -325,262 123,238 247,476 1023,447 777,-30 2207,-327 4310,-694 2102,-368 4876,-805 8405,-1024 3528,-219 7811,-219 12047,-254z"/>
	</g>
</svg>