<?xml version="1.0" encoding="utf-8"?>
<!-- Generator: Adobe Illustrator 16.0.3, SVG Export Plug-In . SVG Version: 6.00 Build 0)  -->
<!DOCTYPE svg PUBLIC "-//W3C//DTD SVG 1.1//EN" "http://www.w3.org/Graphics/SVG/1.1/DTD/svg11.dtd">
<svg version="1.1" id="molde_jaqueta_college_verso" xmlns="http://www.w3.org/2000/svg" xmlns:xlink="http://www.w3.org/1999/xlink" x="0px" y="0px" 
	width="460px" height="440px" viewBox="0 0 460 440" enable-background="new 0 0 460 440" xml:space="preserve"
	image-rendering="optimizeQuality" text-rendering="geometricPrecision" shape-rendering="geometricPrecision">
	<path d="M73.187,94.6c-0.703,1.236-1.523,2.837-2.566,5.146c-1.044,2.31-2.31,5.329-3.757,8.709
	c-1.447,3.38-3.074,7.123-4.611,10.747c-1.538,3.624-2.985,7.13-4.307,10.42c-1.322,3.291-2.519,6.366-3.867,9.622
	c-1.35,3.255-2.852,6.691-4.244,10.079c-1.392,3.389-2.671,6.727-3.749,9.593c-1.078,2.866-1.955,5.259-2.992,7.951
	c-1.036,2.692-2.232,5.683-3.248,8.375c-1.016,2.692-1.851,5.084-2.783,7.596c-0.932,2.511-1.961,5.141-3.081,7.993
	c-1.121,2.852-2.331,5.927-3.583,9.162c-1.252,3.235-2.545,6.628-3.714,9.836c-1.169,3.207-2.212,6.226-3.353,9.467
	c-1.141,3.242-2.38,6.705-3.521,9.996s-2.184,6.406-3.165,9.613c-0.981,3.208-1.899,6.504-2.832,10.755
	c-0.932,4.25-1.878,9.454-2.727,14.087c-0.848,4.633-1.6,8.695-2.33,12.416c-0.731,3.723-1.44,7.104-1.955,10.303
	c-0.516,3.199-0.835,6.219-1.148,9.189c-0.313,2.971-0.619,5.892-0.891,9.355c-0.271,3.465-0.507,7.472-0.716,10.762
	c-0.208,3.291-0.39,5.865-0.827,8.375c-0.438,2.512-1.134,4.96-1.134,7.193s0.695,4.25,1.106,6.469
	c0.411,2.221,0.536,4.641,0.521,6.979c-0.014,2.336-0.167,4.59-0.237,7.094c-0.069,2.506-0.055,5.26,0.063,7.875
	c0.118,2.616,0.341,5.093,0.313,8.063c-0.028,2.971-0.306,6.435,0.021,9.148c0.328,2.713,1.259,4.674,1.718,6.225
	c0.46,1.552,0.446,2.692,0.244,4.07c-0.202,1.377-0.592,2.99-1.023,4.299c-0.432,1.308-0.904,2.31-1.398,2.998
	c-0.494,0.689-1.009,1.064-1.488,1.795c-0.48,0.73-0.926,1.815-1.267,2.949c-0.341,1.134-0.578,2.316-0.313,3.54
	c0.264,1.225,1.029,2.491,1.913,3.576c0.883,1.085,1.885,1.989,2.491,2.463c0.604,0.473,0.813,0.515,0.993,0.575
	c0.179,0.061,0.328,0.141,0.403,0.181c0.075,0.04,0.075,0.04,0.067,1.585c-0.009,1.544-0.026,4.633,0.257,7.38
	c0.284,2.748,0.868,5.155,1.14,6.901c0.271,1.745,0.23,2.831-0.007,4.083c-0.237,1.253-0.668,2.671-0.668,3.728
	c0,1.059,0.432,1.754,1.204,2.338c0.772,0.585,1.885,1.058,4.313,1.587c2.427,0.528,6.17,1.112,9.488,1.557
	c3.318,0.446,6.211,0.752,9.009,0.627c2.796-0.125,5.496-0.682,8.027-1.287c2.532-0.605,4.898-1.259,6.619-1.938
	c1.721-0.681,2.8-1.386,3.889-2.14c1.088-0.753,2.188-1.553,3.102-2.384c0.915-0.831,1.645-1.693,2.146-2.459
	c0.5-0.765,0.771-1.434,0.893-1.986c0.122-0.553,0.094-0.991-0.16-1.631c-0.254-0.641-0.734-1.482-1.134-2.323
	c-0.401-0.843-0.72-1.684-1.012-2.964c-0.292-1.28-0.556-2.998-0.817-4.869c-0.262-1.871-0.519-3.896-0.644-5.367
	c-0.126-1.472-0.119-2.39-0.122-2.908c-0.004-0.519-0.018-0.636,0.275-1.012c0.295-0.375,0.896-1.009,1.35-1.628
	c0.455-0.618,0.76-1.224,0.959-1.67c0.198-0.445,0.289-0.729,0.518-1.266c0.23-0.535,0.599-1.321,0.849-2.33
	c0.251-1.008,0.383-2.24,0.383-3.2s-0.132-1.648-0.199-1.992c-0.066-0.346-0.066-0.346,0.108-0.762
	c0.174-0.418,0.521-1.253,0.734-2.035c0.212-0.783,0.289-1.514,0.667-2.469c0.379-0.957,1.061-2.14,1.477-3.352
	c0.417-1.213,0.565-2.454,0.722-4.029c0.156-1.572,0.32-3.479,0.583-5.016c0.263-1.538,0.625-2.707,1.056-3.883
	c0.432-1.175,0.932-2.357,0.932-3.957s-0.5-3.617-1.152-5.168c-0.65-1.552-1.449-2.638-2.003-3.35
	c-0.552-0.714-0.859-1.055-1.012-1.225s-0.153-0.17,0.146-0.832c0.299-0.66,0.897-1.982,1.186-3.047s0.268-1.871,0.14-3.019
	c-0.129-1.147-0.365-2.637-0.539-3.822c-0.174-1.187-0.285-2.069,0.049-3.521c0.333-1.451,1.113-3.467,1.878-5.293
	s1.517-3.461,2.028-4.668c0.512-1.207,0.782-1.986,0.921-2.811c0.139-0.824,0.146-1.693,0-2.678
	c-0.146-0.984-0.445-2.084-0.504-3.398c-0.059-1.314,0.122-2.846,0.389-4.66c0.269-1.816,0.624-3.918,1.002-6.133
	c0.38-2.215,0.784-4.546,1.19-6.879c0.407-2.334,0.817-4.672,1.151-7.029c0.334-2.358,0.591-4.738,0.845-6.929
	c0.255-2.19,0.504-4.194,0.629-5.196c0.126-1.002,0.126-1.002,0.661-1.469c0.536-0.465,1.606-1.396,2.859-2.539
	c1.251-1.14,2.685-2.489,3.873-3.895c1.188-1.404,2.13-2.866,2.838-4.008c0.708-1.141,1.181-1.961,1.665-3.034
	c0.483-1.073,0.977-2.397,1.238-3.692c0.262-1.293,0.289-2.555,0.108-4.177c-0.181-1.621-0.571-3.601-0.954-5.147
	c-0.385-1.548-0.764-2.664-1.001-3.313c-0.236-0.646-0.33-0.824-0.353-0.93c-0.022-0.105,0.026-0.141,0.519-0.535
	c0.493-0.395,1.428-1.15,2.324-2.012c0.895-0.863,1.751-1.834,2.752-3.047c1.002-1.214,2.149-2.672,3.016-3.797
	s1.451-1.918,1.976-2.75c0.525-0.831,0.991-1.701,1.5-2.645c0.51-0.945,1.063-1.964,1.683-3.146c0.622-1.183,1.31-2.528,1.839-3.57
	c0.527-1.042,0.897-1.779,1.46-2.684s1.322-1.976,1.949-3.045c0.628-1.069,1.125-2.138,1.6-3.281
	c0.475-1.145,0.927-2.365,1.338-3.48c0.41-1.115,0.778-2.123,0.975-2.772c0.197-0.648,0.221-0.937,0.293-1.423
	c0.072-0.487,0.192-1.172,0.311-1.648c0.118-0.476,0.235-0.741,0.357-1.265c0.123-0.523,0.251-1.305,0.402-2.181
	c0.15-0.876,0.322-1.849,0.481-2.743c0.159-0.895,0.305-1.712,0.576-3.55c0.271-1.838,0.665-4.697,0.883-6.667
	c0.219-1.968,0.261-3.047,0.282-3.65c0.021-0.603,0.02-0.732,0.022-0.797c0.002-0.065,0.005-0.067,0.601-0.495
	c0.594-0.428,1.781-1.282,2.598-2.027c0.817-0.746,1.266-1.382,1.587-1.961c0.322-0.58,0.517-1.101,0.684-1.734
	c0.167-0.632,0.307-1.376,0.375-1.838c0.068-0.46,0.064-0.637,0.073-0.737c0.008-0.099,0.029-0.12,0.202,0.592
	c0.172,0.711,0.495,2.155,0.774,3.34c0.278,1.187,0.511,2.115,0.785,3.531c0.275,1.416,0.592,3.318,1.025,5.045
	c0.432,1.727,0.982,3.278,1.511,5.41c0.527,2.132,1.036,4.845,1.475,6.873c0.438,2.028,0.806,3.371,1.209,4.918
	c0.404,1.547,0.842,3.301,1.277,5.11c0.435,1.808,0.866,3.672,1.326,5.676c0.458,2.003,0.946,4.146,1.371,6.956
	c0.423,2.81,0.785,6.288,1.05,8.618c0.264,2.33,0.432,3.514,0.515,4.105c0.084,0.591,0.084,0.591-0.479,1.809
	c-0.563,1.217-1.691,3.651-2.671,6.045c-0.981,2.393-1.816,4.743-2.477,7.025c-0.661,2.282-1.148,4.494-1.621,7.165
	c-0.473,2.671-0.932,5.802-1.148,8.194s-0.188,4.049-0.055,6.357c0.132,2.311,0.369,5.273,0.758,7.701s0.932,4.32,2.017,6.998
	c1.085,2.679,2.713,6.143,3.923,8.431c1.211,2.288,2.004,3.401,2.401,3.958c0.396,0.557,0.396,0.557-0.453,2.191
	s-2.545,4.904-3.868,7.68c-1.322,2.775-2.268,5.058-3.053,7.297c-0.786,2.24-1.413,4.438-1.872,6.602
	c-0.458,2.164-0.751,4.293-0.799,6.094c-0.049,1.802,0.146,3.277,0.646,5.204s1.308,4.306,2.581,6.56
	c1.273,2.254,3.012,4.383,4.59,6.178c1.58,1.794,2.999,3.254,3.708,3.986c0.709,0.729,0.709,0.729,0.681,1.092
	c-0.027,0.361-0.083,1.084-0.257,1.48s-0.466,0.466-1.321,1.197c-0.856,0.73-2.275,2.121-3.395,3.492
	c-1.121,1.37-1.941,2.72-2.664,4.131c-0.724,1.412-1.35,2.887-1.802,4.605s-0.73,3.68-0.862,5.69
	c-0.133,2.011-0.119,4.069,0.132,5.997c0.25,1.926,0.737,3.721,1.147,4.771c0.411,1.051,0.745,1.356,1.016,1.488
	c0.271,0.133,0.479,0.091,0.507,0.432c0.028,0.34-0.125,1.064-0.466,3.492c-0.341,2.428-0.869,6.56-1.19,9.446
	c-0.319,2.887-0.431,4.528-0.569,6.831c-0.14,2.303-0.307,5.266-0.459,7.221s-0.292,2.901-0.042,3.589
	c0.251,0.689,0.891,1.12,2.247,1.58c1.357,0.458,3.43,0.945,6.164,1.266c2.734,0.319,6.127,0.474,10.636,0.689
	c4.507,0.216,10.128,0.493,14.872,0.646c4.744,0.153,8.612,0.182,13.455,0.224c4.841,0.042,10.656,0.097,16.924,0.348
	c6.268,0.25,12.988,0.695,19.833,0.842c6.845,0.146,13.815-0.007,20.111-0.14c6.295-0.132,11.917-0.243,17.502-0.424
	c5.585-0.181,11.137-0.432,16.221-0.731c5.086-0.299,9.705-0.646,15.04-1.043c5.336-0.396,11.388-0.842,17.878-1.301
	s13.418-0.932,20.486-1.343c7.067-0.41,14.273-0.758,19.742-1.176c5.467-0.417,9.195-0.903,11.515-1.29
	c2.321-0.386,3.232-0.671,3.688-0.958c0.456-0.287,0.456-0.576,0.229-3.158c-0.226-2.582-0.678-7.459-1.105-11.574
	c-0.428-4.113-0.831-7.467-1.228-10.215s-0.786-4.89-0.981-5.961c-0.194-1.072-0.194-1.072,0.063-1.1
	c0.258-0.027,0.771-0.083,1.107-0.467c0.336-0.385,0.492-1.099,0.53-2.594c0.039-1.496-0.042-3.774-0.339-6.256
	s-0.812-5.167-1.361-7.281c-0.549-2.114-1.134-3.658-1.837-5.071c-0.702-1.411-1.522-2.692-2.379-3.833
	c-0.854-1.141-1.746-2.143-2.268-3.715c-0.522-1.572-0.675-3.714-0.354-5.634c0.319-1.92,1.113-3.617,2.129-5.183
	c1.015-1.565,2.254-2.998,3.575-4.801c1.322-1.801,2.727-3.971,3.784-5.752c1.057-1.781,1.767-3.172,2.678-5.176
	c0.912-2.004,2.024-4.619,2.47-7.29s0.223-5.397-0.146-7.985c-0.368-2.588-0.883-5.037-1.773-7.457
	c-0.891-2.422-2.156-4.814-3.408-7.354c-1.253-2.539-2.49-5.224-3.708-7.533c-1.217-2.311-2.414-4.244-3.109-5.398
	c-0.696-1.155-0.891-1.529-1.016-1.767s-0.181-0.335,0.39-1.905c0.57-1.573,1.767-4.62,2.566-7.549
	c0.8-2.928,1.204-5.738,1.476-9.133c0.271-3.396,0.409-7.375,0.235-11.242s-0.66-7.623-1.092-10.447s-0.807-4.717-1.044-6.742
	c-0.235-2.023-0.334-4.18,0.049-7.582c0.383-3.401,1.246-8.048,2.039-12.11c0.792-4.062,1.517-7.541,2.399-11.039
	c0.884-3.5,1.928-7.02,2.755-10.136c0.828-3.117,1.44-5.829,2.034-8.485c0.596-2.655,1.172-5.253,1.644-7.192
	c0.472-1.939,0.837-3.219,1.047-3.92c0.211-0.7,0.267-0.822,0.253,0.829c-0.014,1.65-0.098,5.073-0.001,7.946
	c0.098,2.873,0.377,5.197,0.717,7.714c0.341,2.519,0.745,5.232,1.37,7.667c0.626,2.435,1.476,4.591,2.436,6.734
	c0.96,2.142,2.031,4.271,3.401,6.643c1.371,2.372,3.04,4.987,4.542,7.102c1.503,2.115,2.839,3.729,4.027,5.086
	c1.189,1.355,2.233,2.455,3.276,3.387c1.044,0.934,2.087,1.699,2.608,2.08c0.522,0.383,0.522,0.383,0.718,1.838
	c0.194,1.453,0.584,4.361,0.974,6.309s0.778,2.936,1.21,4.451c0.432,1.518,0.905,3.563,1.502,5.329
	c0.599,1.768,1.322,3.256,2.115,4.585c0.793,1.328,1.656,2.497,2.574,3.533c0.918,1.037,1.893,1.941,2.797,2.713
	c0.903,0.772,1.738,1.412,2.156,1.732c0.417,0.319,0.417,0.319,0.389,1.064c-0.027,0.744-0.083,2.232,0.098,3.673
	c0.181,1.439,0.599,2.831,1.314,4.868c0.717,2.039,1.732,4.724,2.449,6.525c0.716,1.802,1.134,2.721,1.641,4.411
	c0.509,1.69,1.107,4.153,1.685,7.757c0.577,3.603,1.134,8.347,1.662,11.803c0.529,3.458,1.03,5.629,1.447,8.188
	s0.751,5.509,1.077,8.326c0.328,2.818,0.647,5.503,1.101,7.812c0.451,2.311,1.036,4.244,1.481,5.469s0.751,1.738,0.89,2.671
	c0.14,0.932,0.112,2.281-0.209,3.617c-0.319,1.335-0.932,2.657-1.543,3.743c-0.612,1.085-1.225,1.934-1.489,3.02
	c-0.264,1.084-0.181,2.406,0.278,3.568c0.46,1.161,1.294,2.163,2.108,3.422c0.813,1.259,1.605,2.775,2.065,4.306
	c0.459,1.53,0.585,3.075,0.654,4.474c0.069,1.397,0.083,2.65,0.313,3.874c0.23,1.225,0.675,2.421,0.897,3.019
	c0.223,0.599,0.223,0.599,0.445,1.838c0.222,1.237,0.668,3.714,1.043,5.521c0.376,1.81,0.683,2.95,0.661,4.119
	c-0.021,1.169-0.368,2.365-0.945,3.506c-0.578,1.141-1.385,2.227-1.865,3.617c-0.479,1.392-0.633,3.089-0.208,4.744
	c0.424,1.656,1.426,3.27,2.351,4.681c0.925,1.413,1.774,2.624,2.429,3.333c0.653,0.709,1.112,0.918,1.342,1.023
	c0.229,0.104,0.229,0.104,0.091,0.932c-0.139,0.827-0.418,2.483-0.794,4.737c-0.375,2.254-0.848,5.105-1.509,7.172
	c-0.661,2.065-1.51,3.346-1.927,4.256c-0.417,0.912-0.404,1.455-0.118,2.276c0.284,0.82,0.841,1.919,1.885,3.095
	c1.043,1.176,2.573,2.428,4.988,3.743c2.413,1.313,5.71,2.691,9.327,3.609c3.617,0.919,7.556,1.378,11.138,1.495
	c3.582,0.119,6.811-0.104,9.899-0.618c3.088-0.516,6.037-1.321,7.817-1.941c1.781-0.619,2.394-1.05,2.873-1.509
	c0.48-0.459,0.828-0.946,0.898-2.205c0.069-1.26-0.14-3.291-0.286-5.378c-0.146-2.086-0.229-4.229-0.091-6.532
	c0.141-2.302,0.502-4.764,0.689-6.503c0.188-1.739,0.202-2.755,0.209-3.263c0.007-0.509,0.007-0.509,0.528-0.883
	c0.521-0.377,1.565-1.128,2.498-2.289c0.932-1.162,1.752-2.734,1.961-4.313c0.208-1.578-0.194-3.165-0.445-4.111
	c-0.25-0.945-0.348-1.251-0.48-2.288c-0.132-1.037-0.299-2.804-0.319-5.336s0.104-5.829,0.028-8.472
	c-0.077-2.645-0.355-4.634-0.188-6.547c0.167-1.912,0.779-3.749,1.155-5.475c0.375-1.725,0.515-3.338,0.097-5.871
	c-0.417-2.531-1.391-5.982-1.975-10.406c-0.585-4.424-0.779-9.822-0.863-15.498c-0.083-5.676-0.055-11.631-0.306-18.615
	s-0.779-14.998-1.294-21.411c-0.516-6.415-1.016-11.228-1.893-16.918s-2.128-12.258-3.422-18.853
	c-1.295-6.594-2.629-13.216-4.786-21.049c-2.157-7.832-5.134-16.876-7.735-24.235c-2.603-7.36-4.828-13.036-7.499-19.992
	c-2.672-6.957-5.787-15.194-8.987-23.554c-3.2-8.361-6.483-16.849-10.406-26.42c-3.924-9.572-8.487-20.228-12.243-29.355
	c-3.757-9.127-6.706-16.723-10.338-23.582c-3.63-6.859-7.944-12.981-11.255-17.113c-3.312-4.132-5.621-6.274-7.345-7.916
	c-1.726-1.642-2.866-2.782-4.738-4.146c-1.871-1.364-4.473-2.95-8.361-4.807c-3.889-1.857-9.064-3.986-13.579-5.627
	c-4.514-1.642-8.368-2.796-12.033-3.777c-3.666-0.981-7.145-1.789-10.859-2.72c-3.715-0.932-7.666-1.99-11.736-3.151
	c-4.068-1.162-8.257-2.428-11.483-3.583c-3.229-1.155-5.496-2.199-6.707-2.755c-1.209-0.556-1.362-0.626-1.695-1.329
	c-0.336-0.702-0.85-2.038-1.455-3.089c-0.605-1.05-1.301-1.815-1.962-2.375c-0.661-0.56-1.286-0.914-1.909-1.144
	c-0.623-0.23-1.242-0.334-1.857-0.397c-0.616-0.063-1.228-0.083-1.534-0.094c-0.306-0.011-0.306-0.011-1.085-0.95
	s-2.338-2.817-3.541-5.571c-1.203-2.755-2.053-6.385-2.421-9.155c-0.368-2.768-0.257-4.674-0.563-6.136
	c-0.306-1.46-1.029-2.477-2.17-3.547s-2.699-2.198-4.786-3.213c-2.087-1.016-4.702-1.92-7.533-2.533
	c-2.832-0.612-5.878-0.932-9.76-1.12c-3.882-0.188-8.599-0.244-13.794-0.278c-5.197-0.035-10.873-0.049-16.299,0.181
	c-5.426,0.23-10.602,0.703-14.539,1.544c-3.937,0.841-6.636,2.052-8.66,3.2c-2.025,1.148-3.374,2.233-4.209,3.463
	c-0.835,1.232-1.155,2.609-1.35,4.251c-0.195,1.642-0.264,3.548-0.57,5.711c-0.306,2.164-0.848,4.584-1.648,6.707
	c-0.8,2.122-1.857,3.944-2.678,5.167c-0.821,1.225-1.405,1.851-1.697,2.164c-0.292,0.313-0.292,0.313-0.737,0.188
	c-0.445-0.125-1.335-0.375-2.608,0.077c-1.273,0.452-2.929,1.606-4.056,2.935s-1.725,2.831-2.031,3.659
	c-0.307,0.828-0.321,0.981-1.899,1.753c-1.579,0.771-4.723,2.163-8.793,3.54c-4.07,1.378-9.064,2.741-13.954,4.014
	c-4.891,1.272-9.676,2.456-13.767,3.464c-4.09,1.008-7.485,1.843-11.179,2.928c-3.694,1.085-7.686,2.42-11.144,3.763
	s-6.38,2.692-9.071,4.25c-2.692,1.559-5.155,3.325-6.908,4.549c-1.753,1.225-2.796,1.906-4.361,3.367
	c-1.565,1.461-3.652,3.701-6.157,6.65c-2.503,2.95-5.426,6.608-7.2,9.071c-1.773,2.462-2.4,3.729-3.005,4.799
	C74.474,92.488,73.89,93.362,73.187,94.6z"/>
</svg>