<?xml version="1.0" encoding="utf-8"?>
<!-- Generator: Adobe Illustrator 16.0.3, SVG Export Plug-In . SVG Version: 6.00 Build 0)  -->
<!DOCTYPE svg PUBLIC "-//W3C//DTD SVG 1.1//EN" "http://www.w3.org/Graphics/SVG/1.1/DTD/svg11.dtd">
<svg version="1.1" id="molde_jaqueta_college" xmlns="http://www.w3.org/2000/svg" xmlns:xlink="http://www.w3.org/1999/xlink" x="0px" y="0px" 
	width="460px" height="431px" viewBox="0 0 460 431" enable-background="new 0 0 460 431" xml:space="preserve"
	image-rendering="optimizeQuality" text-rendering="geometricPrecision" shape-rendering="geometricPrecision">
	<path d="M180.89,29.7c-0.515,0.034-1.49,0.106-2.501,0.425c-1.011,0.318-2.058,0.883-2.863,1.603
	c-0.806,0.719-1.371,1.594-1.832,2.395c-0.461,0.802-0.819,1.532-0.995,1.99c-0.176,0.458-0.169,0.644-0.578,0.974
	c-0.411,0.33-1.236,0.806-2.41,1.39c-1.174,0.585-2.695,1.281-4.588,2.052c-1.893,0.771-4.159,1.618-6.017,2.254
	c-1.858,0.636-3.311,1.063-5.077,1.58s-3.845,1.122-6.909,1.862c-3.063,0.741-7.111,1.615-10.757,2.392
	c-3.645,0.779-6.887,1.46-9.824,2.162c-2.936,0.702-5.565,1.426-7.864,2.179c-2.299,0.754-4.269,1.539-5.793,2.158
	s-2.606,1.074-3.835,1.666c-1.229,0.593-2.606,1.322-4.007,2.152c-1.401,0.829-2.826,1.759-4.244,2.719
	c-1.419,0.96-2.83,1.952-3.738,2.63c-0.909,0.678-1.315,1.043-1.969,1.58c-0.655,0.537-1.556,1.246-2.799,2.53
	c-1.242,1.284-2.826,3.142-3.962,4.544c-1.136,1.4-1.825,2.343-2.716,3.452c-0.891,1.108-1.986,2.382-2.954,3.752
	c-0.967,1.37-1.807,2.835-2.657,4.26c-0.851,1.426-1.711,2.81-2.427,4.004c-0.715,1.194-1.287,2.199-1.927,3.442
	c-0.641,1.242-1.35,2.723-2.199,4.543c-0.851,1.821-1.843,3.982-2.582,5.665c-0.741,1.684-1.229,2.889-1.89,4.51
	c-0.662,1.622-1.495,3.659-2.22,5.474c-0.727,1.813-1.346,3.404-1.941,4.97c-0.596,1.567-1.167,3.108-1.814,4.709
	c-0.647,1.601-1.37,3.26-2.096,5.057c-0.727,1.796-1.456,3.731-2.199,5.614c-0.744,1.883-1.501,3.714-2.485,6.144
	c-0.985,2.43-2.196,5.46-3.025,7.549c-0.83,2.089-1.278,3.239-1.808,4.712c-0.53,1.474-1.143,3.271-1.8,5.033
	c-0.658,1.763-1.36,3.49-2.104,5.4c-0.743,1.911-1.528,4.003-2.416,6.406c-0.888,2.402-1.879,5.115-3.242,8.915
	c-1.363,3.8-3.099,8.688-4.729,13.28c-1.631,4.591-3.16,8.887-4.502,12.55c-1.343,3.662-2.499,6.692-3.497,9.405
	c-0.998,2.711-1.838,5.108-2.692,7.538c-0.854,2.431-1.722,4.894-2.548,7.524c-0.825,2.629-1.611,5.426-2.278,8.034
	c-0.668,2.608-1.219,5.033-2.031,7.938c-0.813,2.905-1.886,6.292-2.877,9.81c-0.991,3.519-1.9,7.167-2.588,10.168
	c-0.688,3.002-1.157,5.357-1.667,8.055c-0.509,2.699-1.06,5.742-1.687,9.838c-0.626,4.098-1.328,9.246-1.879,13.873
	c-0.551,4.625-0.949,8.729-1.315,12.756c-0.365,4.027-0.694,7.979-0.908,11.242c-0.214,3.264-0.31,5.838-0.482,8.916
	c-0.173,3.077-0.419,6.656-0.461,9.396c-0.041,2.739,0.124,4.641,0.117,6.01c-0.007,1.37-0.186,2.211-0.454,3.422
	c-0.269,1.211-0.626,2.795-1.316,4.654c-0.688,1.857-1.707,3.992-2.361,5.803c-0.654,1.811-0.943,3.297-0.887,5.191
	c0.055,1.893,0.454,4.191,0.757,6.25c0.303,2.059,0.508,3.877,0.743,6.527c0.234,2.649,0.495,6.134,0.646,8.233
	c0.152,2.099,0.193,2.815,0.193,3.519c0,0.701-0.041,1.391-0.086,1.816c-0.045,0.428-0.093,0.592-0.333,0.875
	c-0.241,0.281-0.675,0.682-1.098,1.229c-0.424,0.547-0.836,1.242-1.105,2.131c-0.269,0.889-0.393,1.969-0.258,2.963
	c0.134,0.996,0.527,1.904,1.098,2.692c0.571,0.788,1.321,1.456,1.928,1.862c0.605,0.406,1.067,0.551,1.301,0.65
	s0.241,0.155,0.19,1.223c-0.052,1.066-0.163,3.145-0.197,5.334c-0.034,2.189,0.007,4.489,0.107,6.038
	c0.1,1.549,0.258,2.348,0.375,3.487c0.118,1.14,0.193,2.619,0.097,4.244c-0.097,1.624-0.365,3.394-0.465,4.526
	c-0.1,1.133-0.031,1.628,0.448,2.076c0.478,0.447,1.366,0.846,2.218,1.046c0.851,0.2,1.667,0.2,2.664,0.282
	c0.998,0.083,2.174,0.247,3.347,0.429c1.172,0.181,2.339,0.377,3.363,0.528c1.023,0.151,1.904,0.258,2.978,0.391
	c1.072,0.133,2.335,0.291,3.517,0.394c1.183,0.104,2.284,0.152,3.508,0.206c1.223,0.053,2.569,0.111,3.903,0.094
	c1.334-0.017,2.656-0.11,4.022-0.249c1.366-0.14,2.778-0.325,4.157-0.578c1.378-0.253,2.724-0.574,4.139-0.995
	c1.415-0.422,2.899-0.944,4.198-1.563c1.3-0.617,2.415-1.329,3.146-1.913c0.731-0.583,1.079-1.038,1.415-1.44
	c0.336-0.403,0.66-0.755,0.814-1.241s0.141-1.11,0.044-1.667c-0.096-0.556-0.274-1.044-0.62-1.744
	c-0.347-0.701-0.859-1.613-1.234-2.535c-0.375-0.922-0.613-1.855-0.821-2.825c-0.208-0.969-0.387-1.973-0.528-3.106
	c-0.141-1.132-0.244-2.392-0.327-3.969c-0.083-1.576-0.145-3.469-0.176-4.533c-0.031-1.063-0.031-1.298-0.031-1.415
	c0-0.116,0-0.116,0.448-0.423c0.447-0.307,1.343-0.919,2.199-1.628c0.857-0.71,1.676-1.515,2.269-2.289
	c0.591-0.774,0.956-1.519,1.232-2.059c0.275-0.54,0.46-0.878,0.74-1.67c0.279-0.791,0.651-2.037,0.86-3.376
	c0.21-1.339,0.258-2.771,0.124-4.068c-0.134-1.299-0.451-2.461-0.712-3.836c-0.262-1.373-0.469-2.956-0.414-4.543
	c0.055-1.586,0.372-3.178,0.63-4.605c0.258-1.429,0.458-2.695,0.575-3.801c0.117-1.104,0.152-2.047,0.186-2.554
	c0.035-0.506,0.069-0.575,0.2-1.542s0.357-2.832,0.398-4.217c0.042-1.384-0.103-2.285-0.068-3.215
	c0.034-0.93,0.248-1.887,0.833-2.957c0.585-1.07,1.542-2.254,2.427-3.395c0.884-1.139,1.697-2.232,2.234-3.266
	c0.537-1.032,0.798-2.004,0.853-3.074c0.055-1.07-0.096-2.24-0.327-3.496c-0.23-1.258-0.541-2.6-0.829-3.938
	c-0.29-1.339-0.558-2.675-0.665-3.812c-0.107-1.136-0.052-2.07,0.02-2.649c0.073-0.579,0.162-0.798,0.493-1.77
	c0.331-0.97,0.902-2.692,1.37-4.619c0.469-1.928,0.833-4.062,1.26-6.079c0.427-2.017,0.915-3.917,1.274-5.61
	c0.357-1.694,0.584-3.181,0.86-4.585c0.275-1.404,0.599-2.727,0.953-4.285c0.354-1.56,0.74-3.356,1.15-5.271
	c0.41-1.913,0.843-3.944,1.173-5.852c0.331-1.907,0.558-3.69,0.885-5.376c0.327-1.688,0.753-3.277,1.367-5.063
	c0.613-1.786,1.411-3.771,2.068-5.528c0.658-1.759,1.174-3.295,1.511-4.4c0.338-1.104,0.496-1.779,0.617-2.264
	c0.12-0.485,0.203-0.781,0.378-1.453c0.176-0.671,0.444-1.717,0.568-2.863s0.104-2.393,0.093-3.016
	c-0.01-0.623-0.01-0.623-0.01-0.623s0,0,0.822-0.706c0.823-0.705,2.468-2.117,3.687-3.239c1.218-1.121,2.01-1.954,2.688-2.945
	c0.679-0.991,1.243-2.142,1.622-2.982c0.378-0.839,0.571-1.369,0.722-1.968c0.152-0.6,0.262-1.267,0.524-2.506
	c0.262-1.239,0.674-3.05,0.97-4.654c0.296-1.604,0.476-3.002,0.623-4.169c0.148-1.166,0.265-2.102,0.372-2.828
	s0.203-1.243,0.286-1.567c0.083-0.322,0.151-0.454,0.908-1.114c0.757-0.661,2.203-1.852,3.559-3.129
	c1.357-1.277,2.623-2.641,4.087-4.472c1.462-1.831,3.122-4.131,4.398-6.11c1.277-1.979,2.172-3.638,2.93-5s1.377-2.431,2.013-3.78
	c0.637-1.349,1.291-2.98,1.784-4.175c0.492-1.194,0.822-1.952,1.053-2.684c0.23-0.733,0.362-1.443,0.458-2.093
	s0.158-1.243,0.269-2.076c0.11-0.833,0.268-1.907,0.382-3.665c0.114-1.76,0.183-4.203,0.21-6.815
	c0.028-2.613,0.014-5.394,0.074-7.215c0.06-1.821,0.195-2.681,0.336-3.481c0.141-0.8,0.29-1.541,0.364-1.91
	c0.074-0.371,0.074-0.371,0.087-0.436c0.014-0.065,0.042-0.197,0.279,0.696c0.238,0.891,0.686,2.806,1.085,4.433
	c0.399,1.628,0.75,2.971,1.125,4.712c0.376,1.742,0.774,3.883,1.157,5.793c0.382,1.91,0.747,3.59,1.191,5.448
	c0.444,1.859,0.967,3.897,1.387,5.811c0.419,1.915,0.736,3.704,1.112,5.47c0.375,1.766,0.809,3.508,1.215,5.445
	c0.406,1.938,0.785,4.071,1.091,5.911c0.306,1.837,0.541,3.379,0.691,4.922c0.152,1.541,0.221,3.084,0.145,4.767
	c-0.076,1.684-0.296,3.509-0.513,5.208c-0.218,1.701-0.431,3.277-0.695,5.009c-0.266,1.731-0.583,3.617-0.757,5.493
	c-0.176,1.876-0.21,3.742-0.289,5.756c-0.08,2.014-0.204,4.176-0.256,5.969c-0.051,1.793-0.03,3.218,0.145,4.815
	c0.176,1.597,0.507,3.366,0.919,5.36c0.413,1.992,0.909,4.209,1.473,5.951c0.564,1.741,1.198,3.008,1.598,3.83
	c0.4,0.822,0.564,1.201,0.665,1.426c0.1,0.223,0.134,0.292-0.155,1.019c-0.29,0.727-0.902,2.11-1.825,4.034s-2.155,4.389-3.073,6.31
	c-0.919,1.921-1.526,3.298-2.172,4.526c-0.647,1.229-1.336,2.311-1.862,3.469c-0.527,1.16-0.892,2.4-1.294,3.478
	c-0.402,1.077-0.843,1.992-1.208,2.856c-0.366,0.865-0.654,1.677-0.905,2.559c-0.251,0.881-0.464,1.83-0.606,3.018
	c-0.141,1.188-0.209,2.613-0.158,4.217s0.224,3.388,0.465,4.922c0.241,1.536,0.55,2.823,0.995,4.293
	c0.443,1.47,1.022,3.123,1.754,4.919c0.733,1.797,1.622,3.738,2.427,5.565c0.805,1.828,1.529,3.543,2.299,5.096
	c0.771,1.551,1.591,2.942,2.265,4.285c0.675,1.342,1.205,2.636,1.653,4.013s0.813,2.837,0.974,4.341
	c0.162,1.504,0.12,3.053-0.014,4.09c-0.134,1.035-0.362,1.559-0.864,2.337c-0.503,0.778-1.28,1.811-1.869,2.751
	c-0.589,0.939-0.988,1.786-1.422,2.842c-0.434,1.058-0.902,2.324-1.264,3.595c-0.36,1.271-0.615,2.544-0.798,3.982
	c-0.182,1.438-0.292,3.043-0.351,4.716c-0.058,1.672-0.066,3.414-0.031,4.559c0.034,1.145,0.11,1.691,0.346,2.307
	c0.236,0.614,0.631,1.296,0.85,1.676c0.219,0.381,0.26,0.459,0.205,0.911c-0.055,0.45-0.207,1.272-0.444,2.6
	c-0.238,1.327-0.562,3.159-0.851,5.221c-0.29,2.062-0.544,4.354-0.785,6.637c-0.241,2.281-0.468,4.554-0.665,6.994
	c-0.196,2.44-0.36,5.05-0.481,6.564s-0.196,1.935,0.031,2.413c0.227,0.479,0.757,1.015,1.855,1.614
	c1.098,0.599,2.764,1.259,5.001,1.797c2.238,0.536,5.047,0.95,9.088,1.432s9.314,1.032,14.306,1.453
	c4.991,0.419,9.7,0.708,13.878,0.86c4.179,0.151,7.828,0.164,11.855,0.199c4.027,0.034,8.434,0.089,13.136,0.172
	c4.701,0.083,9.699,0.193,12.805,0.227c3.104,0.035,4.315-0.007,5.084-0.033c0.767-0.028,1.091-0.042,1.38-0.06
	c0.29-0.017,0.543-0.038,2.782,0.007c2.237,0.046,6.457,0.155,8.86,0.2c2.402,0.045,2.987,0.024,3.538,0.093
	c0.551,0.069,1.067,0.228,1.99,0.365c0.922,0.138,2.25,0.255,4.123,0.248c1.874-0.008,4.29-0.139,7.743-0.213
	c3.453-0.076,7.941-0.098,11.816-0.131c3.877-0.035,7.14-0.083,11.91-0.143c4.771-0.058,11.049-0.127,17.301-0.202
	c6.251-0.076,12.474-0.158,18.223-0.317c5.748-0.157,11.021-0.392,15.813-0.64c4.793-0.248,9.101-0.509,13.515-0.93
	c4.412-0.42,8.929-0.998,11.91-1.377c2.98-0.379,4.427-0.558,5.444-0.895c1.02-0.338,1.611-0.833,1.88-1.26s0.214-0.785,0.069-2.499
	c-0.145-1.715-0.379-4.785-0.634-7.752c-0.255-2.968-0.529-5.831-0.923-9.149c-0.393-3.318-0.901-7.091-1.175-9.118
	c-0.271-2.027-0.309-2.31-0.327-2.47c-0.019-0.159-0.021-0.198,0.196-0.36c0.217-0.163,0.651-0.451,0.99-0.889
	c0.338-0.438,0.58-1.025,0.754-2.012c0.173-0.984,0.279-2.363,0.464-4.012c0.185-1.646,0.446-3.561,0.428-5.447
	c-0.017-1.885-0.313-3.745-0.753-5.489c-0.44-1.746-1.026-3.378-1.687-4.675c-0.661-1.298-1.398-2.262-2.565-3.355
	c-1.167-1.096-2.764-2.32-3.606-3.064c-0.844-0.743-0.934-1.005-1.185-2.064c-0.251-1.061-0.664-2.92-0.871-4.028
	c-0.206-1.108-0.206-1.466,0.118-2.011c0.322-0.543,0.97-1.272,2.037-2.199c1.067-0.926,2.554-2.048,3.906-3.459
	c1.354-1.412,2.571-3.111,3.429-4.396s1.353-2.151,1.772-3.418c0.421-1.267,0.765-2.933,0.947-4.593
	c0.182-1.658,0.203-3.311-0.192-5.803c-0.396-2.492-1.208-5.824-2.282-8.916c-1.074-3.09-2.41-5.939-3.752-8.798
	c-1.343-2.856-2.692-5.72-3.408-7.249c-0.716-1.527-0.799-1.721-0.84-1.826c-0.042-0.104-0.042-0.121,0.282-0.514
	c0.323-0.391,0.971-1.153,2.014-2.784c1.043-1.63,2.481-4.124,3.601-6.522c1.119-2.397,1.917-4.696,2.461-6.321
	c0.545-1.624,0.833-2.575,1.191-4.206c0.357-1.633,0.784-3.945,0.919-6.076c0.134-2.131-0.024-4.079-0.283-6.633
	c-0.258-2.555-0.615-5.714-1.091-8.588c-0.475-2.875-1.067-5.463-1.979-8.416s-2.145-6.272-3.146-8.717
	c-1.002-2.443-1.772-4.013-2.172-4.784c-0.399-0.771-0.427-0.743-0.021-3.69c0.407-2.946,1.246-8.866,2.562-15.861
	c1.314-6.994,3.104-15.062,4.357-20.793s1.969-9.126,2.334-10.875c0.364-1.749,0.379-1.852,0.544-1.518
	c0.165,0.333,0.482,1.105,1.34,2.086c0.855,0.981,2.254,2.172,3.445,3.245c1.19,1.074,2.175,2.032,2.667,2.51
	s0.492,0.479,0.506,1.356c0.014,0.878,0.042,2.634,0.131,4.175c0.09,1.542,0.241,2.871,0.389,4.065
	c0.149,1.195,0.293,2.255,0.49,3.701c0.195,1.446,0.443,3.276,0.722,5.084c0.279,1.807,0.589,3.59,0.867,4.826
	c0.279,1.235,0.527,1.924,0.651,2.269c0.123,0.343,0.123,0.343,0.151,0.636c0.027,0.293,0.082,0.879,0.351,1.674
	s0.751,1.8,1.305,2.867c0.555,1.066,1.181,2.196,1.949,3.518c0.767,1.322,1.675,2.837,2.385,4.1
	c0.709,1.264,1.219,2.275,1.869,3.563c0.65,1.288,1.442,2.851,2.438,4.476c0.994,1.624,2.192,3.312,3.49,4.908
	c1.297,1.598,2.694,3.104,3.823,4.126c1.13,1.023,1.99,1.561,2.603,1.925s0.979,0.558,1.16,0.655
	c0.183,0.096,0.183,0.096-0.024,0.615c-0.206,0.52-0.619,1.56-1.112,2.881c-0.491,1.322-1.063,2.926-1.358,4.33
	s-0.316,2.609-0.228,3.945c0.09,1.336,0.289,2.803,0.706,4.079c0.416,1.276,1.049,2.364,1.366,2.909
	c0.316,0.543,0.316,0.543,0.514,0.914c0.195,0.373,0.588,1.115,1.221,2.045c0.634,0.93,1.508,2.045,2.506,3.088
	s2.121,2.014,2.968,2.736c0.846,0.724,1.418,1.198,1.734,1.684c0.316,0.484,0.379,0.98,0.469,1.721
	c0.089,0.74,0.206,1.725,0.443,3.054c0.238,1.328,0.596,3.001,0.937,4.729c0.341,1.728,0.664,3.511,1.005,5.246
	c0.341,1.734,0.699,3.422,1.074,5.276c0.375,1.855,0.768,3.88,1.137,5.722c0.367,1.841,0.712,3.5,0.991,5.069
	c0.278,1.569,0.491,3.05,0.657,4.513c0.165,1.463,0.281,2.908,0.375,4.254c0.093,1.346,0.161,2.592,0.323,3.566
	s0.417,1.677,1.005,3.009c0.589,1.332,1.511,3.294,2.166,4.96c0.654,1.666,1.039,3.037,1.256,4.117s0.265,1.872,0.32,2.777
	c0.055,0.905,0.117,1.924,0.117,2.867s-0.063,1.811-0.06,2.637c0.005,0.826,0.073,1.611,0.293,2.568
	c0.221,0.957,0.593,2.086,1.04,3.057s0.971,1.783,1.411,2.484c0.44,0.703,0.799,1.295,0.978,1.592
	c0.179,0.295,0.179,0.295-0.327,0.9s-1.518,1.818-2.282,2.938c-0.764,1.117-1.28,2.145-1.621,3.221
	c-0.341,1.077-0.506,2.207-0.21,3.277c0.297,1.07,1.053,2.082,1.594,3.091c0.54,1.009,0.864,2.013,1.047,2.975
	c0.182,0.96,0.224,1.876,0.258,2.974s0.062,2.379,0.206,3.676c0.145,1.299,0.406,2.613,0.689,3.639
	c0.281,1.025,0.584,1.762,0.768,2.279c0.182,0.516,0.243,0.813,0.416,1.528c0.172,0.716,0.454,1.852,0.806,2.911
	c0.351,1.061,0.771,2.045,1.02,2.637c0.247,0.592,0.322,0.792,0.329,1.449c0.007,0.658-0.055,1.773,0.063,2.678
	c0.116,0.906,0.412,1.602,0.581,1.984c0.169,0.381,0.21,0.45,0.386,0.873c0.176,0.424,0.485,1.201,1.036,1.972
	c0.551,0.771,1.343,1.536,1.941,2.027c0.599,0.493,1.005,0.714,1.208,0.823c0.203,0.11,0.203,0.11,0.166,1.229
	c-0.038,1.118-0.114,3.356-0.203,5.524c-0.09,2.168-0.193,4.269-0.503,6.189c-0.31,1.92-0.826,3.662-1.191,4.888
	c-0.364,1.225-0.577,1.935-0.885,2.623c-0.307,0.688-0.705,1.355-0.743,2.021c-0.038,0.664,0.286,1.324,0.848,2.082
	c0.561,0.758,1.358,1.61,2.474,2.368c1.116,0.758,2.548,1.418,3.987,1.973c1.438,0.555,2.885,1.001,4.409,1.346
	s3.129,0.586,4.664,0.747s3.002,0.244,4.292,0.265c1.291,0.021,2.406-0.021,3.797-0.131c1.391-0.109,3.057-0.288,4.476-0.488
	c1.417-0.2,2.588-0.421,4.233-0.634c1.646-0.214,3.766-0.42,5.61-0.502c1.846-0.083,3.415-0.041,4.781-0.179
	c1.367-0.139,2.53-0.455,3.208-0.889c0.679-0.434,0.87-0.984,0.932-1.51c0.06-0.524-0.012-1.023-0.211-1.962
	c-0.197-0.938-0.521-2.314-0.521-3.788s0.322-3.043,0.595-4.503c0.272-1.459,0.492-2.809,0.62-4.202
	c0.127-1.395,0.162-2.833,0.124-4.469c-0.038-1.635-0.147-3.466-0.255-4.867c-0.106-1.4-0.21-2.371-0.262-2.856
	s-0.052-0.485,0.327-0.682c0.378-0.195,1.136-0.589,1.845-1.122s1.37-1.208,1.935-1.841c0.564-0.635,1.032-1.226,1.273-1.99
	c0.24-0.764,0.255-1.701,0.121-2.66c-0.135-0.961-0.417-1.945-1.227-3.119c-0.809-1.174-2.145-2.537-3.162-3.697
	c-1.02-1.16-1.722-2.117-1.963-3.414c-0.24-1.298-0.021-2.937,0.279-4.54c0.3-1.604,0.678-3.175,0.977-4.626
	c0.3-1.453,0.52-2.789,0.583-4.765c0.062-1.977-0.035-4.593-0.272-6.761c-0.237-2.169-0.616-3.89-0.764-5.659
	c-0.148-1.77-0.066-3.586,0.12-5.304c0.186-1.718,0.476-3.336,0.423-5.061c-0.052-1.725-0.443-3.556-0.719-5.445
	c-0.276-1.891-0.434-3.839-0.513-5.543c-0.08-1.703-0.08-3.162,0.217-4.443c0.296-1.28,0.889-2.381,1.211-3.645
	c0.324-1.264,0.379-2.689,0.286-3.966c-0.094-1.276-0.334-2.405-0.751-3.749c-0.416-1.342-1.008-2.897-1.41-4.551
	c-0.403-1.65-0.617-3.4-0.786-5.094s-0.291-3.332-0.454-4.847c-0.161-1.514-0.361-2.905-0.561-4.399
	c-0.2-1.494-0.399-3.09-0.627-4.887c-0.227-1.798-0.481-3.795-0.712-5.236c-0.231-1.443-0.437-2.33-0.63-3.979
	c-0.192-1.649-0.372-4.058-0.84-6.915s-1.226-6.162-2.004-9.658c-0.778-3.498-1.576-7.188-2.52-10.878
	c-0.942-3.69-2.03-7.38-3.05-11.311s-1.97-8.103-2.616-11.104c-0.647-3.002-0.991-4.833-1.41-6.334
	c-0.421-1.5-0.917-2.67-1.508-3.869c-0.593-1.197-1.281-2.422-2.313-5.184c-1.033-2.76-2.41-7.056-3.821-11.056
	c-1.411-4-2.857-7.704-4.378-11.525c-1.522-3.821-3.119-7.759-4.813-12.144c-1.693-4.386-3.484-9.218-6.217-16.391
	c-2.732-7.174-6.409-16.688-10.258-26.828c-3.848-10.141-7.869-20.908-10.637-28.26c-2.767-7.353-4.281-11.291-6.773-16.275
	s-5.962-11.015-9.294-15.964c-3.332-4.95-6.526-8.819-8.523-11.111c-1.995-2.293-2.795-3.009-3.353-3.498
	c-0.558-0.489-0.874-0.75-1.797-1.473c-0.922-0.722-2.45-1.907-3.83-2.892c-1.381-0.984-2.613-1.769-4.316-2.75
	c-1.705-0.981-3.881-2.158-6.162-3.17c-2.282-1.013-4.672-1.859-6.761-2.551c-2.09-0.691-3.879-1.229-5.669-1.71
	c-1.79-0.482-3.58-0.908-5.692-1.38c-2.111-0.472-4.545-0.988-6.665-1.448c-2.121-0.46-3.928-0.862-5.742-1.258
	c-1.814-0.396-3.635-0.785-6.03-1.296c-2.396-0.512-5.366-1.145-8.835-2.136c-3.468-0.991-7.434-2.34-10.262-3.483
	c-2.83-1.143-4.523-2.079-5.395-2.664c-0.871-0.585-0.92-0.819-1.119-1.372c-0.199-0.552-0.551-1.424-0.9-2.055
	s-0.697-1.024-0.972-1.463c-0.276-0.438-0.479-0.924-1.004-1.384c-0.524-0.459-1.372-0.894-2.163-1.182s-1.528-0.434-2.111-0.496
	c-0.581-0.062-1.008-0.042-1.242-0.052c-0.234-0.01-0.275-0.052-0.623-0.455c-0.348-0.403-1.001-1.167-1.779-2.237
	c-0.778-1.07-1.68-2.447-2.488-4.417c-0.809-1.968-1.525-4.529-1.891-6.781c-0.364-2.251-0.378-4.192-0.405-5.776
	c-0.028-1.583-0.069-2.809-0.554-3.803c-0.486-0.995-1.416-1.76-2.514-2.475c-1.098-0.716-2.365-1.384-4.293-1.917
	c-1.927-0.534-4.516-0.933-7.631-1.219c-3.115-0.285-6.758-0.458-10.133-0.537c-3.378-0.079-6.489-0.065-9.598-0.028
	c-3.109,0.038-6.213,0.1-9.713,0.107c-3.501,0.007-7.397-0.041-11.669,0.011c-4.271,0.051-8.919,0.203-12.124,0.451
	c-3.204,0.248-4.967,0.591-6.475,0.998c-1.508,0.406-2.76,0.875-3.803,1.398c-1.043,0.522-1.877,1.101-2.554,1.841
	c-0.678,0.74-1.202,1.642-1.429,2.84c-0.228,1.197-0.159,2.691-0.238,4.25c-0.079,1.56-0.306,3.185-0.592,4.805
	c-0.286,1.622-0.63,3.239-1.25,4.847c-0.619,1.607-1.515,3.205-2.397,4.552c-0.882,1.348-1.75,2.447-2.185,2.997
	c-0.435,0.55-0.435,0.55-0.461,0.547C181.457,29.672,181.404,29.667,180.89,29.7z"/>
</svg>